<?xml version="1.0" encoding="utf-8"?>
<!-- Generator: Adobe Illustrator 23.1.1, SVG Export Plug-In . SVG Version: 6.00 Build 0)  -->
<svg version="1.1" id="Layer_1" xmlns="http://www.w3.org/2000/svg" xmlns:xlink="http://www.w3.org/1999/xlink" x="0px" y="0px"
	 width="125px" height="46px" viewBox="0 0 125 46" style="enable-background:new 0 0 125 46;" xml:space="preserve">
<style type="text/css">
	.st0{fill:#1F8AE6;}
	.st1{enable-background:new    ;}
	.st2{fill:#FFFFFF;}
</style>
<g id="Group_106" transform="translate(-46.713 -13)">
	<path id="Rectangle_23" class="st0" d="M65.2,18.4h88c9.7,0,17.6,7.9,17.6,17.6l0,0c0,9.7-7.9,17.6-17.6,17.6h-88
		c-9.7,0-17.6-7.9-17.6-17.6l0,0C47.6,26.3,55.5,18.4,65.2,18.4z"/>
	<g class="st1">
		<path class="st2" d="M80.9,29h2.4l4.9,12.7h-2.4l-1.2-3.4h-5.1l-1.2,3.4H76L80.9,29z M80.1,36.6H84l-1.9-5.4H82L80.1,36.6z"/>
		<path class="st2" d="M89.1,32.5H91v1.2h0c0.3-0.5,0.7-0.9,1.2-1.1c0.5-0.2,1.1-0.3,1.6-0.3c0.7,0,1.4,0.1,1.9,0.4s1,0.6,1.3,1
			c0.4,0.4,0.6,1,0.8,1.6c0.2,0.6,0.3,1.2,0.3,1.9c0,0.6-0.1,1.2-0.2,1.8c-0.2,0.6-0.4,1.1-0.7,1.5c-0.3,0.4-0.7,0.8-1.2,1.1
			c-0.5,0.3-1.1,0.4-1.8,0.4c-0.3,0-0.6,0-0.9-0.1c-0.3-0.1-0.6-0.1-0.9-0.3s-0.5-0.3-0.8-0.5c-0.2-0.2-0.4-0.4-0.6-0.6h0v4.6h-2
			V32.5z M96.2,37.1c0-0.4-0.1-0.8-0.2-1.2s-0.3-0.7-0.5-1s-0.5-0.5-0.8-0.7c-0.3-0.2-0.7-0.3-1.1-0.3c-0.9,0-1.5,0.3-1.9,0.9
			c-0.4,0.6-0.6,1.4-0.6,2.4c0,0.5,0.1,0.9,0.2,1.3c0.1,0.4,0.3,0.7,0.5,1s0.5,0.5,0.8,0.7c0.3,0.2,0.7,0.2,1.1,0.2
			c0.5,0,0.9-0.1,1.2-0.3s0.6-0.4,0.8-0.7s0.4-0.6,0.4-1C96.1,37.9,96.2,37.5,96.2,37.1z"/>
		<path class="st2" d="M99.9,32.5h1.9v1.8h0c0.1-0.2,0.2-0.5,0.3-0.7c0.2-0.2,0.4-0.5,0.6-0.6c0.2-0.2,0.5-0.4,0.8-0.5
			c0.3-0.1,0.6-0.2,0.9-0.2c0.2,0,0.4,0,0.5,0c0.1,0,0.2,0,0.3,0v2c-0.1,0-0.3,0-0.4-0.1c-0.1,0-0.3,0-0.4,0c-0.3,0-0.7,0.1-1,0.2
			c-0.3,0.1-0.6,0.3-0.8,0.6s-0.4,0.6-0.5,1c-0.1,0.4-0.2,0.8-0.2,1.3v4.4h-2V32.5z"/>
		<path class="st2" d="M110,41.9c-0.7,0-1.4-0.1-2-0.4s-1.1-0.6-1.5-1s-0.7-0.9-0.9-1.5c-0.2-0.6-0.3-1.2-0.3-2
			c0-0.7,0.1-1.3,0.3-1.9c0.2-0.6,0.5-1.1,0.9-1.5s0.9-0.8,1.5-1s1.2-0.4,2-0.4c0.7,0,1.4,0.1,2,0.4c0.6,0.2,1.1,0.6,1.5,1
			s0.7,0.9,0.9,1.5c0.2,0.6,0.3,1.2,0.3,1.9c0,0.7-0.1,1.4-0.3,2c-0.2,0.6-0.5,1.1-0.9,1.5s-0.9,0.8-1.5,1
			C111.4,41.8,110.7,41.9,110,41.9z M110,40.3c0.4,0,0.8-0.1,1.2-0.3c0.3-0.2,0.6-0.4,0.8-0.7s0.4-0.7,0.5-1
			c0.1-0.4,0.2-0.8,0.2-1.2c0-0.4-0.1-0.8-0.2-1.2c-0.1-0.4-0.3-0.7-0.5-1c-0.2-0.3-0.5-0.5-0.8-0.7c-0.3-0.2-0.7-0.3-1.2-0.3
			c-0.5,0-0.8,0.1-1.2,0.3c-0.3,0.2-0.6,0.4-0.8,0.7c-0.2,0.3-0.4,0.6-0.5,1c-0.1,0.4-0.2,0.8-0.2,1.2c0,0.4,0.1,0.8,0.2,1.2
			c0.1,0.4,0.3,0.7,0.5,1s0.5,0.6,0.8,0.7C109.2,40.2,109.6,40.3,110,40.3z"/>
		<path class="st2" d="M116.4,29h2v4.7h0c0.1-0.2,0.3-0.4,0.5-0.6c0.2-0.2,0.4-0.3,0.7-0.5s0.5-0.2,0.8-0.3c0.3-0.1,0.5-0.1,0.8-0.1
			c0.7,0,1.4,0.1,1.9,0.4s1,0.6,1.3,1c0.4,0.4,0.6,1,0.8,1.6c0.2,0.6,0.3,1.2,0.3,1.9c0,0.6-0.1,1.2-0.2,1.8
			c-0.2,0.6-0.4,1.1-0.7,1.5s-0.7,0.8-1.2,1.1c-0.5,0.3-1.1,0.4-1.8,0.4c-0.3,0-0.6,0-0.9-0.1c-0.3,0-0.6-0.1-0.9-0.2
			c-0.3-0.1-0.5-0.3-0.8-0.5c-0.2-0.2-0.4-0.4-0.6-0.7h0v1.3h-1.9V29z M123.4,37.1c0-0.4-0.1-0.8-0.2-1.2s-0.3-0.7-0.5-1
			s-0.5-0.5-0.8-0.7c-0.3-0.2-0.7-0.3-1.1-0.3c-0.9,0-1.5,0.3-1.9,0.9s-0.6,1.4-0.6,2.4c0,0.5,0.1,0.9,0.2,1.3
			c0.1,0.4,0.3,0.7,0.5,1c0.2,0.3,0.5,0.5,0.8,0.7c0.3,0.2,0.7,0.2,1.1,0.2c0.5,0,0.9-0.1,1.2-0.3s0.6-0.4,0.8-0.7s0.4-0.6,0.4-1
			C123.4,37.9,123.4,37.5,123.4,37.1z"/>
		<path class="st2" d="M134.8,39.6c0,0.2,0,0.4,0.1,0.5c0.1,0.1,0.2,0.2,0.4,0.2c0.1,0,0.1,0,0.2,0s0.2,0,0.3,0v1.4
			c-0.1,0-0.2,0.1-0.3,0.1s-0.2,0.1-0.3,0.1c-0.1,0-0.2,0-0.4,0.1s-0.2,0-0.3,0c-0.4,0-0.8-0.1-1-0.2c-0.3-0.2-0.5-0.5-0.5-0.9
			c-0.4,0.4-0.9,0.7-1.5,0.9c-0.6,0.2-1.2,0.3-1.7,0.3c-0.4,0-0.8-0.1-1.2-0.2c-0.4-0.1-0.7-0.3-1-0.5s-0.5-0.5-0.7-0.8
			c-0.2-0.3-0.3-0.7-0.3-1.2c0-0.6,0.1-1,0.3-1.4c0.2-0.4,0.5-0.6,0.8-0.8c0.3-0.2,0.7-0.3,1.1-0.4s0.8-0.2,1.3-0.2
			c0.4-0.1,0.7-0.1,1-0.2c0.3,0,0.6-0.1,0.9-0.2c0.3-0.1,0.5-0.2,0.6-0.3c0.1-0.1,0.2-0.4,0.2-0.7c0-0.3-0.1-0.5-0.2-0.6
			c-0.1-0.2-0.3-0.3-0.5-0.4c-0.2-0.1-0.4-0.1-0.6-0.2c-0.2,0-0.4,0-0.6,0c-0.6,0-1,0.1-1.4,0.4c-0.4,0.2-0.6,0.6-0.6,1.1h-2
			c0-0.6,0.2-1.1,0.4-1.5c0.2-0.4,0.6-0.7,0.9-0.9c0.4-0.2,0.8-0.4,1.3-0.5s1-0.1,1.5-0.1c0.4,0,0.9,0,1.3,0.1s0.8,0.2,1.2,0.5
			s0.6,0.5,0.8,0.8c0.2,0.3,0.3,0.7,0.3,1.2V39.6z M132.8,37.1c-0.3,0.2-0.7,0.3-1.1,0.4c-0.5,0-0.9,0.1-1.3,0.2
			c-0.2,0-0.4,0.1-0.6,0.2c-0.2,0.1-0.4,0.2-0.5,0.3c-0.2,0.1-0.3,0.3-0.4,0.4c-0.1,0.2-0.1,0.4-0.1,0.7c0,0.2,0.1,0.4,0.2,0.6
			c0.1,0.2,0.3,0.3,0.5,0.4c0.2,0.1,0.4,0.2,0.6,0.2c0.2,0,0.4,0.1,0.6,0.1c0.2,0,0.5,0,0.7-0.1c0.3-0.1,0.5-0.2,0.7-0.3
			s0.4-0.3,0.6-0.5c0.2-0.2,0.2-0.5,0.2-0.8V37.1z"/>
		<path class="st2" d="M137,32.5h1.9v1.8h0c0.1-0.2,0.2-0.5,0.3-0.7c0.2-0.2,0.4-0.5,0.6-0.6c0.2-0.2,0.5-0.4,0.8-0.5
			c0.3-0.1,0.6-0.2,0.9-0.2c0.2,0,0.4,0,0.5,0c0.1,0,0.2,0,0.3,0v2c-0.1,0-0.3,0-0.4-0.1c-0.1,0-0.3,0-0.4,0c-0.3,0-0.7,0.1-1,0.2
			c-0.3,0.1-0.6,0.3-0.8,0.6s-0.4,0.6-0.5,1c-0.1,0.4-0.2,0.8-0.2,1.3v4.4h-2V32.5z"/>
	</g>
</g>
</svg>
