<svg xmlns="http://www.w3.org/2000/svg" width="111.652" height="79.871" viewBox="0 0 111.652 79.871">
  <g id="Group_336" data-name="Group 336" transform="translate(0 -0.037)">
    <path id="Path_261" data-name="Path 261" d="M152.2,254.155h6.847a2.094,2.094,0,0,0,2.093-2.093V243.6H152.2v10.555Z" transform="translate(-119.01 -190.449)" fill="#ec7887"/>
    <path id="Path_262" data-name="Path 262" d="M152.122,254.155h5.561a15.771,15.771,0,0,1-1.09-6.106,1.574,1.574,0,0,1,1.57-1.614h2.879V243.6H152.1l.022,10.555Z" transform="translate(-118.931 -190.449)" opacity="0.1"/>
    <path id="Path_263" data-name="Path 263" d="M112.86,268.822h-6.651a4.261,4.261,0,0,1-4.056-2.966l-2.093-6.564a20.665,20.665,0,0,1-.96-6.215V243.7h13.651v9.377a20.665,20.665,0,0,0,.96,6.215l1.854,5.823A2.852,2.852,0,0,1,112.86,268.822Z" transform="translate(-77.489 -190.527)" fill="#609ad6"/>
    <rect id="Rectangle_153" data-name="Rectangle 153" width="13.651" height="5.67" transform="translate(21.589 53.151)" opacity="0.1"/>
    <path id="Path_264" data-name="Path 264" d="M10.662,126.314h7.087V103.7H10.662A3.164,3.164,0,0,0,7.5,106.862v16.29A3.164,3.164,0,0,0,10.662,126.314Z" transform="translate(-5.864 -81.057)" fill="#495059"/>
    <path id="Path_265" data-name="Path 265" d="M7.5,122.258v.916a3.164,3.164,0,0,0,3.162,3.162h7.087V103.7H13.911C14.478,109.762,15.46,119.248,7.5,122.258Z" transform="translate(-5.864 -81.057)" opacity="0.1"/>
    <g id="Group_334" data-name="Group 334" transform="translate(5.713 26.481)" opacity="0.25">
      <path id="Path_266" data-name="Path 266" d="M32.371,151.371H27.836a1.636,1.636,0,1,1,0-3.271h4.536a1.636,1.636,0,1,1,0,3.271Z" transform="translate(-26.2 -142.256)"/>
      <path id="Path_267" data-name="Path 267" d="M32.371,124.571H27.836a1.636,1.636,0,1,1,0-3.271h4.536a1.647,1.647,0,0,1,1.636,1.636A1.62,1.62,0,0,1,32.371,124.571Z" transform="translate(-26.2 -121.3)"/>
      <path id="Path_268" data-name="Path 268" d="M32.371,178.171H27.836a1.636,1.636,0,1,1,0-3.271h4.536a1.636,1.636,0,1,1,0,3.271Z" transform="translate(-26.2 -163.211)"/>
    </g>
    <path id="Path_269" data-name="Path 269" d="M100.251,16.916l14.894-8.461a7.487,7.487,0,0,1,11.187,6.52V64.543a7.494,7.494,0,0,1-11.187,6.52l-14.894-8.439A27.973,27.973,0,0,0,86.4,58.96H60.213A5.705,5.705,0,0,1,54.5,53.247V26.272a5.705,5.705,0,0,1,5.713-5.713H86.4A27.952,27.952,0,0,0,100.251,16.916Z" transform="translate(-42.615 -5.809)" fill="#eef0f1"/>
    <path id="Path_270" data-name="Path 270" d="M321.34,8.465l-3.14,1.788V69.307l3.14,1.788a7.487,7.487,0,0,0,11.187-6.52V14.986A7.494,7.494,0,0,0,321.34,8.465Z" transform="translate(-248.81 -5.82)" fill="#609ad6"/>
    <g id="Group_335" data-name="Group 335" transform="translate(19.365 25.478)">
      <ellipse id="Ellipse_33" data-name="Ellipse 33" cx="5.43" cy="4.318" rx="5.43" ry="4.318" fill="#ec7887"/>
      <ellipse id="Ellipse_34" data-name="Ellipse 34" cx="5.43" cy="4.318" rx="5.43" ry="4.318" transform="translate(29.396)" fill="#ec7887"/>
    </g>
    <path id="Path_271" data-name="Path 271" d="M167.025,111.151h0a3.937,3.937,0,0,1-3.925-3.925v-2.857a1.07,1.07,0,0,1,1.069-1.069h5.713a1.07,1.07,0,0,1,1.069,1.069v2.857A3.923,3.923,0,0,1,167.025,111.151Z" transform="translate(-127.533 -80.744)" fill="#495059"/>
    <path id="Path_272" data-name="Path 272" d="M80.821,98.008c-16.246-1.287-15.5-17.62-15.09-30.508H60.213A5.705,5.705,0,0,0,54.5,73.213v26.975a5.705,5.705,0,0,0,5.713,5.713H86.4a28.1,28.1,0,0,1,13.847,3.664l14.894,8.439a7.487,7.487,0,0,0,11.187-6.52v-.393C116.912,113.4,105.79,99.992,80.821,98.008Z" transform="translate(-42.615 -52.751)" opacity="0.1"/>
    <path id="Path_273" data-name="Path 273" d="M107.917,329.427a4.261,4.261,0,0,0,4.056,2.966h6.651a2.842,2.842,0,0,0,2.7-3.707L120.151,325H106.5Z" transform="translate(-83.276 -254.098)" fill="#5b6ea2"/>
    <path id="Path_274" data-name="Path 274" d="M23.224,45.235h4.143a1.636,1.636,0,0,0,0-3.271H23.224a1.636,1.636,0,0,0,0,3.271Zm0-5.037h4.143a1.636,1.636,0,0,0,0-3.271H23.224a1.636,1.636,0,1,0,0,3.271ZM25.71,26.328a1.647,1.647,0,0,0,1.636-1.636V22.359a1.636,1.636,0,0,0-3.271,0v2.333A1.633,1.633,0,0,0,25.71,26.328Zm71.069-8.9a1.635,1.635,0,1,0-2.312,2.312,22.454,22.454,0,0,1,0,31.751,1.645,1.645,0,0,0,0,2.312,1.632,1.632,0,0,0,2.312,0A25.744,25.744,0,0,0,96.78,17.431Zm5.19-5.212a1.635,1.635,0,1,0-2.312,2.312,29.838,29.838,0,0,1,0,42.153,1.645,1.645,0,0,0,0,2.312,1.632,1.632,0,0,0,2.312,0A33.089,33.089,0,0,0,101.97,12.219Zm-10.38,10.4a1.635,1.635,0,1,0-2.312,2.312,15.136,15.136,0,0,1,0,21.371,1.645,1.645,0,0,0,0,2.312,1.632,1.632,0,0,0,2.312,0A18.387,18.387,0,0,0,91.589,22.621ZM54.91,24.693V22.359a1.636,1.636,0,1,0-3.271,0v2.333a1.636,1.636,0,1,0,3.271,0Zm25.907-23.4a8.988,8.988,0,0,0-9.094-.044L56.829,9.689a26.469,26.469,0,0,1-13.041,3.424H26.408a1.636,1.636,0,1,0,0,3.271h17.38a29.787,29.787,0,0,0,14.654-3.86l9.29-5.277V60.674L58.443,55.4a29.726,29.726,0,0,0-14.654-3.86H17.6a4.086,4.086,0,0,1-4.078-4.078v-27A4.086,4.086,0,0,1,17.6,16.384h1.156a1.636,1.636,0,1,0,0-3.271H17.6a7.352,7.352,0,0,0-7.349,7.349v.545H4.8A4.812,4.812,0,0,0,0,25.8v16.29a4.812,4.812,0,0,0,4.8,4.8h5.452v.545A7.352,7.352,0,0,0,17.6,54.786h2.355v7.741A21.94,21.94,0,0,0,21,69.244l2.093,6.564a5.877,5.877,0,0,0,5.626,4.1h6.651a4.481,4.481,0,0,0,4.274-5.844l-1.854-5.822a19.274,19.274,0,0,1-.676-2.9h2.966a3.741,3.741,0,0,0,3.729-3.729V54.786h.022a26.552,26.552,0,0,1,13.041,3.446l14.894,8.439a9.011,9.011,0,0,0,4.492,1.2,8.761,8.761,0,0,0,3.053-.545,9.13,9.13,0,0,0,5.474-5.3,1.636,1.636,0,1,0-3.053-1.178,5.862,5.862,0,0,1-8.352,2.944l-2.312-1.308V5.35l2.312-1.308a5.86,5.86,0,0,1,8.745,5.1V54.263a1.636,1.636,0,0,0,3.271,0V9.166A9.153,9.153,0,0,0,80.817,1.294ZM10.249,43.621H4.8a1.517,1.517,0,0,1-1.526-1.526V25.8A1.517,1.517,0,0,1,4.8,24.278h5.452ZM36.33,76.157a1.25,1.25,0,0,1-.981.5H28.7a2.624,2.624,0,0,1-2.508-1.832L24.1,68.263A18.841,18.841,0,0,1,23.2,62.55V54.808h10.38V62.55a21.94,21.94,0,0,0,1.047,6.717l1.854,5.822A1.051,1.051,0,0,1,36.33,76.157ZM40.5,61.634a.461.461,0,0,1-.458.458H36.854V54.808h3.62v6.826Zm4.558-35.153V23.624a2.718,2.718,0,0,0-2.7-2.7H36.636a2.718,2.718,0,0,0-2.7,2.7v2.857a5.561,5.561,0,1,0,11.122,0Zm-7.851,0v-2.29h4.579v2.29a2.29,2.29,0,1,1-4.579,0Z" transform="translate(0 0)" fill="#292d4a"/>
  </g>
</svg>
