<?xml version="1.0" encoding="utf-8"?>
<!-- Generator: Adobe Illustrator 23.1.1, SVG Export Plug-In . SVG Version: 6.00 Build 0)  -->
<svg version="1.1" id="Layer_1" xmlns="http://www.w3.org/2000/svg" xmlns:xlink="http://www.w3.org/1999/xlink" x="0px" y="0px"
	 viewBox="0 0 125 44" style="enable-background:new 0 0 125 44;" xml:space="preserve">
<style type="text/css">
	.st0{fill:#1EADB9;}
	.st1{enable-background:new    ;}
	.st2{fill:#FFFFFF;}
</style>
<g id="Group_100" transform="translate(0.304 0.112)">
	<path id="Rectangle_2" class="st0" d="M2.7-0.1h119c1.7,0,3,1.3,3,3v38c0,1.7-1.3,3-3,3H2.7c-1.7,0-3-1.3-3-3v-38
		C-0.3,1.2,1-0.1,2.7-0.1z"/>
	<g class="st1">
		<path class="st2" d="M16.4,24.5v1.4h-6v-7.7h5.8v1.4h-4v1.7h3.6v1.4h-3.6v1.8H16.4z"/>
		<path class="st2" d="M24.8,25.9l0-4.6l-2.3,3.8h-0.8l-2.3-3.7v4.5h-1.7v-7.7h1.5l2.9,4.8l2.8-4.8h1.5l0,7.7H24.8z"/>
		<path class="st2" d="M35,21c0,1.7-1.3,2.8-3.3,2.8h-1.6v2.1h-1.8v-7.7h3.3C33.7,18.2,35,19.3,35,21z M33.2,21
			c0-0.8-0.5-1.3-1.6-1.3h-1.5v2.7h1.5C32.6,22.3,33.2,21.8,33.2,21z"/>
		<path class="st2" d="M42.2,24.5v1.4h-6v-7.7H42v1.4h-4v1.7h3.6v1.4H38v1.8H42.2z"/>
		<path class="st2" d="M49.8,24.4v1.5h-6.7v-1.2l4.2-5.1h-4.1v-1.5h6.5v1.2l-4.2,5.1H49.8z"/>
		<path class="st2" d="M56.1,24.2h-3.6l-0.7,1.7H50l3.4-7.7h1.8l3.4,7.7h-1.9L56.1,24.2z M55.5,22.9l-1.2-2.9L53,22.9H55.5z"/>
		<path class="st2" d="M64.3,25.9l-1.5-2.1h-0.1h-1.6v2.1h-1.8v-7.7h3.3c2.1,0,3.3,1.1,3.3,2.8c0,1.2-0.6,2-1.6,2.4l1.7,2.5H64.3z
			 M62.6,19.6h-1.5v2.7h1.5c1.1,0,1.6-0.5,1.6-1.3C64.3,20.1,63.7,19.6,62.6,19.6z"/>
		<path class="st2" d="M75.7,24.2h-3.6l-0.7,1.7h-1.8l3.4-7.7h1.8l3.4,7.7h-1.9L75.7,24.2z M75.1,22.9l-1.2-2.9l-1.2,2.9H75.1z"/>
		<path class="st2" d="M86.1,18.2v7.7h-1.8v-3.2h-3.5v3.2H79v-7.7h1.8v3h3.5v-3H86.1z"/>
		<path class="st2" d="M87.4,22c0-2.3,1.8-4,4.2-4c2.4,0,4.2,1.7,4.2,4c0,2.3-1.8,4-4.2,4C89.2,26,87.4,24.3,87.4,22z M94.1,22
			c0-1.5-1-2.5-2.4-2.5c-1.4,0-2.4,1-2.4,2.5s1,2.5,2.4,2.5C93,24.5,94.1,23.5,94.1,22z"/>
		<path class="st2" d="M102.1,25.9l-1.5-2.1h-0.1H99v2.1h-1.8v-7.7h3.3c2.1,0,3.3,1.1,3.3,2.8c0,1.2-0.6,2-1.6,2.4l1.7,2.5H102.1z
			 M100.4,19.6H99v2.7h1.5c1.1,0,1.6-0.5,1.6-1.3C102.1,20.1,101.5,19.6,100.4,19.6z"/>
		<path class="st2" d="M110.4,24.2h-3.6l-0.7,1.7h-1.8l3.4-7.7h1.8l3.4,7.7H111L110.4,24.2z M109.8,22.9l-1.2-2.9l-1.2,2.9H109.8z"
			/>
	</g>
</g>
</svg>
