<svg id="Group_331" data-name="Group 331" xmlns="http://www.w3.org/2000/svg" width="57.867" height="80.271" viewBox="0 0 57.867 80.271">
  <path id="Path_225" data-name="Path 225" d="M59.694,124.3H42.777a3.533,3.533,0,0,1-3.528-3.528v-4.249A3.533,3.533,0,0,0,35.722,113H11.328A3.523,3.523,0,0,0,7.8,116.528V170.82a3.506,3.506,0,0,0,3.512,3.512h48.4a3.506,3.506,0,0,0,3.512-3.512V127.831A3.533,3.533,0,0,0,59.694,124.3Z" transform="translate(-6.577 -95.284)" fill="#7dd2f0"/>
  <path id="Path_226" data-name="Path 226" d="M11.312,388.847h48.4a3.506,3.506,0,0,0,3.512-3.512V367.4a3.506,3.506,0,0,1-3.512,3.512h-48.4A3.506,3.506,0,0,1,7.8,367.4v17.936A3.506,3.506,0,0,0,11.312,388.847Z" transform="translate(-6.577 -309.799)" fill="#61b9d9"/>
  <rect id="Rectangle_149" data-name="Rectangle 149" width="13.467" height="14.957" transform="translate(37.078 21.651)" fill="#ffe6cc"/>
  <path id="Path_227" data-name="Path 227" d="M61.9,154.4H50.419a3.921,3.921,0,0,0-3.919,3.919v5.691a3.921,3.921,0,0,0,3.919,3.919H61.9a3.921,3.921,0,0,0,3.919-3.919v-5.691A3.921,3.921,0,0,0,61.9,154.4Z" transform="translate(-39.21 -130.193)" fill="#b9e578"/>
  <path id="Path_228" data-name="Path 228" d="M49.761,164.011v-5.691A3.921,3.921,0,0,1,53.68,154.4H50.419a3.921,3.921,0,0,0-3.919,3.919v5.691a3.921,3.921,0,0,0,3.919,3.919H53.68A3.931,3.931,0,0,1,49.761,164.011Z" transform="translate(-39.21 -130.193)" opacity="0.1"/>
  <path id="Path_229" data-name="Path 229" d="M92.867,416.2H55.225a1.72,1.72,0,0,0-1.725,1.725v6.35A1.72,1.72,0,0,0,55.225,426H92.867a1.72,1.72,0,0,0,1.725-1.725v-6.35A1.73,1.73,0,0,0,92.867,416.2Z" transform="translate(-45.112 -350.948)" fill="#7dd2f0"/>
  <circle id="Ellipse_20" data-name="Ellipse 20" cx="1.96" cy="1.96" r="1.96" transform="translate(26.966 68.199)" fill="#61b9d9"/>
  <g id="Group_330" data-name="Group 330" transform="translate(8.403 41.923)">
    <circle id="Ellipse_21" data-name="Ellipse 21" cx="2.305" cy="2.305" r="2.305" fill="#fff"/>
    <circle id="Ellipse_22" data-name="Ellipse 22" cx="2.305" cy="2.305" r="2.305" transform="translate(0 7.792)" fill="#fff"/>
    <circle id="Ellipse_23" data-name="Ellipse 23" cx="2.305" cy="2.305" r="2.305" transform="translate(9.109)" fill="#fff"/>
    <circle id="Ellipse_24" data-name="Ellipse 24" cx="2.305" cy="2.305" r="2.305" transform="translate(9.109 7.792)" fill="#fff"/>
    <circle id="Ellipse_25" data-name="Ellipse 25" cx="2.305" cy="2.305" r="2.305" transform="translate(18.218)" fill="#fff"/>
    <circle id="Ellipse_26" data-name="Ellipse 26" cx="2.305" cy="2.305" r="2.305" transform="translate(18.218 7.792)" fill="#fff"/>
    <circle id="Ellipse_27" data-name="Ellipse 27" cx="2.305" cy="2.305" r="2.305" transform="translate(27.327)" fill="#fff"/>
    <circle id="Ellipse_28" data-name="Ellipse 28" cx="2.305" cy="2.305" r="2.305" transform="translate(27.327 7.792)" fill="#fff"/>
  </g>
  <circle id="Ellipse_29" data-name="Ellipse 29" cx="2.305" cy="2.305" r="2.305" transform="translate(44.855 41.923)" fill="#b9e578"/>
  <circle id="Ellipse_30" data-name="Ellipse 30" cx="2.305" cy="2.305" r="2.305" transform="translate(44.855 49.715)" fill="#ff6c59"/>
  <rect id="Rectangle_150" data-name="Rectangle 150" width="5.958" height="9.313" transform="translate(13.969 11.241)" fill="#61b9d9"/>
  <path id="Path_230" data-name="Path 230" d="M42.085,7.8H20.48A3.486,3.486,0,0,0,17,11.3v5.769a3.5,3.5,0,0,0,3.5,3.5H42.085a3.5,3.5,0,0,0,3.5-3.5V11.3A3.5,3.5,0,0,0,42.085,7.8Z" transform="translate(-14.335 -6.577)" fill="#464655"/>
  <path id="Path_231" data-name="Path 231" d="M19.273,17.066V11.3a3.5,3.5,0,0,1,3.5-3.5H20.48A3.486,3.486,0,0,0,17,11.3v5.769a3.5,3.5,0,0,0,3.5,3.5h2.289A3.5,3.5,0,0,1,19.273,17.066Z" transform="translate(-14.335 -6.577)" opacity="0.1"/>
  <rect id="Rectangle_151" data-name="Rectangle 151" width="20.428" height="4.609" transform="translate(6.742 5.299)" fill="#b9e578"/>
  <rect id="Rectangle_152" data-name="Rectangle 152" width="20.428" height="1.631" transform="translate(6.742 5.299)" opacity="0.1"/>
  <path id="Path_232" data-name="Path 232" d="M11.876,170.82V116.528A3.533,3.533,0,0,1,15.4,113H11.328A3.523,3.523,0,0,0,7.8,116.528V170.82a3.506,3.506,0,0,0,3.512,3.512h4.076A3.506,3.506,0,0,1,11.876,170.82Z" transform="translate(-6.577 -95.284)" opacity="0.1"/>
  <path id="Path_233" data-name="Path 233" d="M257.447,178h-7.024a1.223,1.223,0,0,0,0,2.446h7.024a1.223,1.223,0,0,0,0-2.446Z" transform="translate(-210.131 -150.093)" fill="#292d4a"/>
  <path id="Path_234" data-name="Path 234" d="M257.447,155.6h-7.024a1.223,1.223,0,0,0,0,2.446h7.024a1.223,1.223,0,0,0,0-2.446Z" transform="translate(-210.131 -131.205)" fill="#292d4a"/>
  <path id="Path_235" data-name="Path 235" d="M257.447,200.4h-7.024a1.223,1.223,0,0,0,0,2.446h7.024a1.223,1.223,0,0,0,0-2.446Z" transform="translate(-210.131 -168.981)" fill="#292d4a"/>
  <path id="Path_236" data-name="Path 236" d="M43.842,162.476H55.319a5.145,5.145,0,0,0,5.142-5.142v-5.691a5.145,5.145,0,0,0-5.142-5.142H43.842a5.145,5.145,0,0,0-5.142,5.142v5.691A5.145,5.145,0,0,0,43.842,162.476Zm-2.7-10.818a2.7,2.7,0,0,1,2.7-2.7H55.319a2.7,2.7,0,0,1,2.7,2.7v5.691a2.7,2.7,0,0,1-2.7,2.7H43.842a2.7,2.7,0,0,1-2.7-2.7Z" transform="translate(-32.633 -123.532)" fill="#292d4a"/>
  <path id="Path_237" data-name="Path 237" d="M140.425,408.4h-29.3a1.223,1.223,0,1,0,0,2.446h29.3a.5.5,0,0,1,.5.5v6.35a.5.5,0,0,1-.5.5H136.4a1.223,1.223,0,1,0,0,2.446h4.029a2.944,2.944,0,0,0,2.947-2.947v-6.35A2.954,2.954,0,0,0,140.425,408.4Z" transform="translate(-92.67 -344.371)" fill="#292d4a"/>
  <path id="Path_238" data-name="Path 238" d="M77.369,418.3H48.647a.5.5,0,0,1-.5-.5v-6.35a.5.5,0,0,1,.5-.5H52.1a1.223,1.223,0,1,0,0-2.446H48.647a2.944,2.944,0,0,0-2.947,2.947v6.35a2.944,2.944,0,0,0,2.947,2.947H77.369a1.223,1.223,0,0,0,0-2.446Z" transform="translate(-38.535 -344.456)" fill="#292d4a"/>
  <circle id="Ellipse_31" data-name="Ellipse 31" cx="1.96" cy="1.96" r="1.96" transform="translate(26.966 68.199)" fill="#292d4a"/>
  <path id="Path_239" data-name="Path 239" d="M49.328,259.6a3.528,3.528,0,1,0,3.528,3.527A3.533,3.533,0,0,0,49.328,259.6Zm0,4.609a1.082,1.082,0,1,1,1.082-1.082A1.084,1.084,0,0,1,49.328,264.209Z" transform="translate(-38.62 -218.9)" fill="#292d4a"/>
  <path id="Path_240" data-name="Path 240" d="M49.328,309.3a3.528,3.528,0,1,0,3.528,3.528A3.533,3.533,0,0,0,49.328,309.3Zm0,4.609a1.082,1.082,0,1,1,1.082-1.082A1.084,1.084,0,0,1,49.328,313.909Z" transform="translate(-38.62 -260.808)" fill="#292d4a"/>
  <path id="Path_241" data-name="Path 241" d="M107.428,259.6a3.528,3.528,0,1,0,3.528,3.527A3.533,3.533,0,0,0,107.428,259.6Zm0,4.609a1.082,1.082,0,1,1,1.082-1.082A1.084,1.084,0,0,1,107.428,264.209Z" transform="translate(-87.611 -218.9)" fill="#292d4a"/>
  <path id="Path_242" data-name="Path 242" d="M107.428,309.3a3.528,3.528,0,1,0,3.528,3.528A3.533,3.533,0,0,0,107.428,309.3Zm0,4.609a1.082,1.082,0,1,1,1.082-1.082A1.084,1.084,0,0,1,107.428,313.909Z" transform="translate(-87.611 -260.808)" fill="#292d4a"/>
  <path id="Path_243" data-name="Path 243" d="M165.528,259.6a3.528,3.528,0,1,0,3.528,3.527A3.533,3.533,0,0,0,165.528,259.6Zm0,4.609a1.082,1.082,0,1,1,1.082-1.082A1.064,1.064,0,0,1,165.528,264.209Z" transform="translate(-136.602 -218.9)" fill="#292d4a"/>
  <path id="Path_244" data-name="Path 244" d="M165.528,309.3a3.528,3.528,0,1,0,3.528,3.528A3.533,3.533,0,0,0,165.528,309.3Zm0,4.609a1.082,1.082,0,1,1,1.082-1.082A1.084,1.084,0,0,1,165.528,313.909Z" transform="translate(-136.602 -260.808)" fill="#292d4a"/>
  <path id="Path_245" data-name="Path 245" d="M220.1,263.128a3.528,3.528,0,1,0,3.528-3.527A3.533,3.533,0,0,0,220.1,263.128Zm3.543-1.082a1.082,1.082,0,1,1-1.082,1.082A1.064,1.064,0,0,1,223.643,262.046Z" transform="translate(-185.593 -218.9)" fill="#292d4a"/>
  <path id="Path_246" data-name="Path 246" d="M223.728,309.3a3.528,3.528,0,1,0,3.528,3.528A3.533,3.533,0,0,0,223.728,309.3Zm0,4.609a1.082,1.082,0,1,1,1.082-1.082A1.084,1.084,0,0,1,223.728,313.909Z" transform="translate(-185.677 -260.808)" fill="#292d4a"/>
  <path id="Path_247" data-name="Path 247" d="M281.828,266.655a3.528,3.528,0,1,0-3.528-3.528A3.533,3.533,0,0,0,281.828,266.655Zm0-4.609a1.082,1.082,0,1,1-1.082,1.082A1.084,1.084,0,0,1,281.828,262.046Z" transform="translate(-234.668 -218.9)" fill="#292d4a"/>
  <path id="Path_248" data-name="Path 248" d="M281.828,316.355a3.528,3.528,0,1,0-3.528-3.528A3.533,3.533,0,0,0,281.828,316.355Zm0-4.609a1.082,1.082,0,1,1-1.082,1.082A1.084,1.084,0,0,1,281.828,311.746Z" transform="translate(-234.668 -260.808)" fill="#292d4a"/>
  <path id="Path_249" data-name="Path 249" d="M58.074,31.832V27.223A1.224,1.224,0,0,0,56.851,26H36.423A1.224,1.224,0,0,0,35.2,27.223v4.609a1.224,1.224,0,0,0,1.223,1.223H56.851A1.224,1.224,0,0,0,58.074,31.832Zm-2.461-1.223H37.646V28.446H55.628v2.164Z" transform="translate(-29.681 -21.924)" fill="#292d4a"/>
  <path id="Path_250" data-name="Path 250" d="M47.394,22.874h1.928V35.385H38.3V22.874H42.55a1.223,1.223,0,1,0,0-2.446H37.078a1.224,1.224,0,0,0-1.223,1.223v6.13a2.323,2.323,0,0,1-1.96-2.273V21.259a4.757,4.757,0,0,0-4.75-4.75h-8v-1.3h6.585a4.724,4.724,0,0,0,4.719-4.719V4.719A4.7,4.7,0,0,0,27.75,0H6.146A4.734,4.734,0,0,0,1.427,4.719v5.769a4.734,4.734,0,0,0,4.719,4.719H12.73v1.286h-8A4.754,4.754,0,0,0,0,21.244V75.536a4.731,4.731,0,0,0,4.735,4.735h48.4a4.741,4.741,0,0,0,4.735-4.735V32.547a4.757,4.757,0,0,0-4.75-4.75H51.768V21.636a1.224,1.224,0,0,0-1.223-1.223H47.394a1.231,1.231,0,0,0,0,2.461ZM6.146,12.762a2.275,2.275,0,0,1-2.273-2.273V4.719A2.275,2.275,0,0,1,6.146,2.446h21.6a2.275,2.275,0,0,1,2.273,2.273v5.769a2.275,2.275,0,0,1-2.273,2.273H6.146ZM18.7,15.208v4.123H15.192V15.208ZM55.421,75.536a2.292,2.292,0,0,1-2.289,2.289H4.735a2.292,2.292,0,0,1-2.289-2.289V61.74h.016a4.561,4.561,0,0,0,1.615.533,4.65,4.65,0,0,0,.658.047h48.4a4.28,4.28,0,0,0,1-.11,3.832,3.832,0,0,0,.721-.219,5.845,5.845,0,0,0,.549-.251h.016v13.8ZM52.835,37.831a1.223,1.223,0,0,0,0-2.446H51.768V30.243h1.348a2.308,2.308,0,0,1,2.3,2.3V57.6a2.292,2.292,0,0,1-2.289,2.289H4.735A2.292,2.292,0,0,1,2.446,57.6V21.244a2.308,2.308,0,0,1,2.3-2.3h8v1.615a1.224,1.224,0,0,0,1.223,1.223h5.958a1.224,1.224,0,0,0,1.223-1.223V18.939h8a2.308,2.308,0,0,1,2.3,2.3v4.249a4.745,4.745,0,0,0,4.405,4.735v5.158H34.789a1.223,1.223,0,0,0,0,2.446H52.835Z" fill="#292d4a"/>
</svg>
