<svg xmlns="http://www.w3.org/2000/svg" width="124.988" height="113.496" viewBox="0 0 124.988 113.496">
  <g id="Group_333" data-name="Group 333" transform="matrix(0.545, 0.839, -0.839, 0.545, 86.801, -0.041)">
    <path id="Path_251" data-name="Path 251" d="M78.207,444.6a8.327,8.327,0,0,0-3.842.95h0a9.017,9.017,0,0,0-16.566,0H56.291a9.017,9.017,0,0,0-16.566,0h0A8.275,8.275,0,0,0,27.6,452.886H86.491A8.309,8.309,0,0,0,78.207,444.6Z" transform="translate(-21.899 -349.133)" fill="#eceeff"/>
    <g id="Group_332" data-name="Group 332" transform="translate(2.066 52.96)">
      <path id="Path_252" data-name="Path 252" d="M22.435,256.1l-5.35,2.355A11.837,11.837,0,0,0,10,269.3v20.863L30.8,280.04Z" transform="translate(-10 -256.1)" fill="#ffdfad"/>
      <path id="Path_253" data-name="Path 253" d="M237.666,256.1l5.35,2.355A11.837,11.837,0,0,1,250.1,269.3v20.863L229.3,280.04Z" transform="translate(-184.001 -256.1)" fill="#ffdfad"/>
    </g>
    <path id="Path_254" data-name="Path 254" d="M89.069,89.113h8.861s12.208-11.981,12.208-36.375A53.267,53.267,0,0,0,89.069,10,53.267,53.267,0,0,0,68,52.738c0,24.395,12.208,36.375,12.208,36.375Z" transform="translate(-53.954 -7.875)" fill="#afbaff"/>
    <path id="Path_255" data-name="Path 255" d="M91,30.45h32.637A52.312,52.312,0,0,0,107.318,10,52.312,52.312,0,0,0,91,30.45Z" transform="translate(-72.203 -7.875)" fill="#fe7a77"/>
    <circle id="Ellipse_32" data-name="Ellipse 32" cx="11.567" cy="11.567" r="11.567" transform="translate(23.548 33.522)" fill="#fff"/>
    <path id="Path_256" data-name="Path 256" d="M127.279,155.987a13.633,13.633,0,1,0,0,19.293h0a13.664,13.664,0,0,0,0-19.293Zm-16.36,2.933a9.483,9.483,0,0,1,11.815-1.3l-13.117,13.117a9.483,9.483,0,0,1,1.3-11.815Zm13.426,13.426a9.52,9.52,0,0,1-11.815,1.3l13.117-13.117a9.483,9.483,0,0,1-1.3,11.815Z" transform="translate(-82.518 -120.543)" fill="#292d4a"/>
    <path id="Path_257" data-name="Path 257" d="M322.066,357a2.172,2.172,0,0,0-1.467.6,2.045,2.045,0,0,0-.6,1.467,2.133,2.133,0,0,0,.6,1.467,2.044,2.044,0,0,0,1.467.6,2.133,2.133,0,0,0,1.467-.6,2.044,2.044,0,0,0,.6-1.467,2.133,2.133,0,0,0-.6-1.467A2.044,2.044,0,0,0,322.066,357Z" transform="translate(-253.9 -283.198)" fill="#292d4a"/>
    <path id="Path_258" data-name="Path 258" d="M61.906,53.414,57.94,51.679c.207-2.148.331-4.42.331-6.817A55.467,55.467,0,0,0,47.323,11.544,49.4,49.4,0,0,0,36.272.431a2.022,2.022,0,0,0-2.293,0A50.456,50.456,0,0,0,22.928,11.544,55.518,55.518,0,0,0,11.981,44.863c0,2.4.124,4.668.33,6.817L8.345,53.414A13.877,13.877,0,0,0,0,66.159V87.022a2.117,2.117,0,0,0,.971,1.756,2.094,2.094,0,0,0,1.095.31,2.016,2.016,0,0,0,.909-.207l19.21-9.337a27.831,27.831,0,0,0,2.623,3.181,2.122,2.122,0,0,0,1.446.6h6.8v3.718a2.066,2.066,0,0,0,4.131,0V83.324h6.8a2.032,2.032,0,0,0,1.446-.6,27.831,27.831,0,0,0,2.623-3.181l19.21,9.337a2.016,2.016,0,0,0,.909.207,2.094,2.094,0,0,0,1.095-.31,2.063,2.063,0,0,0,.971-1.756v-3.16a2.068,2.068,0,0,0-4.131-.124L50.318,76.074c.516-.888,1.053-1.859,1.591-2.933a59,59,0,0,0,5.453-17.186l2.871,1.26a9.749,9.749,0,0,1,5.846,8.944v.764a2.066,2.066,0,1,0,4.131,0v-.764A13.839,13.839,0,0,0,61.906,53.414ZM26.13,14.126a49.407,49.407,0,0,1,8.985-9.419A49.986,49.986,0,0,1,44,14a51.374,51.374,0,0,1,4.111,6.527H22.1A53.537,53.537,0,0,1,26.13,14.126Zm-22,69.59V66.159a9.749,9.749,0,0,1,5.846-8.944l2.871-1.26A59,59,0,0,0,18.3,73.141c.537,1.074,1.074,2.045,1.591,2.933Zm44.2-12.642a39.094,39.094,0,0,1-5.267,8.1H37.181V70.765a2.066,2.066,0,0,0-4.131,0v8.407H27.163c-2.293-2.623-11.051-13.984-11.051-34.31A51.429,51.429,0,0,1,20.119,24.64H50.07a51.506,51.506,0,0,1,4.049,20.222A58.459,58.459,0,0,1,48.335,71.075Z" transform="translate(0 0)" fill="#292d4a"/>
    <path id="Path_259" data-name="Path 259" d="M70.035,434.524a10.448,10.448,0,0,0-2.913.413,11.1,11.1,0,0,0-18.281-.268,11.1,11.1,0,0,0-18.281.268A10.364,10.364,0,0,0,17.3,444.872a2.066,2.066,0,0,0,4.131,0,6.217,6.217,0,0,1,12.435,0,2.066,2.066,0,1,0,4.131,0,10.343,10.343,0,0,0-3.759-7.973,6.972,6.972,0,0,1,12.518,4.214,2.072,2.072,0,0,0,2.066,2.066h.041a2.072,2.072,0,0,0,2.066-2.066A6.972,6.972,0,0,1,63.446,436.9a10.343,10.343,0,0,0-3.759,7.973,2.066,2.066,0,0,0,4.131,0,6.217,6.217,0,0,1,12.435,0,2.066,2.066,0,0,0,4.131,0A10.38,10.38,0,0,0,70.035,434.524Z" transform="translate(-13.726 -341.119)" fill="#292d4a"/>
    <path id="Path_260" data-name="Path 260" d="M162.066,300.3a2.172,2.172,0,0,0-1.467.6,2.045,2.045,0,0,0-.6,1.467,2.133,2.133,0,0,0,.6,1.467,2.045,2.045,0,0,0,1.467.6,2.133,2.133,0,0,0,1.467-.6,2.044,2.044,0,0,0,.6-1.467,2.133,2.133,0,0,0-.6-1.467A2.045,2.045,0,0,0,162.066,300.3Z" transform="translate(-126.95 -238.21)" fill="#292d4a"/>
  </g>
</svg>
