<?xml version="1.0" encoding="utf-8"?>
<!-- Generator: Adobe Illustrator 23.1.1, SVG Export Plug-In . SVG Version: 6.00 Build 0)  -->
<svg version="1.1" id="Layer_1" xmlns="http://www.w3.org/2000/svg" xmlns:xlink="http://www.w3.org/1999/xlink" x="0px" y="0px"
	 width="131.1px" height="44.5px" viewBox="0 0 131.1 44.5" style="enable-background:new 0 0 131.1 44.5;" xml:space="preserve">
<style type="text/css">
	.st0{fill:#1F8AE6;}
	.st1{fill:#FFFFFF;}
</style>
<path class="st0" d="M111.5,37.7h-92c-7.8,0-14.2-6.9-14.2-15.4l0,0c0-8.6,6.4-15.5,14.2-15.5h92c7.8,0,14.2,6.9,14.2,15.4l0,0
	C125.8,30.8,119.4,37.7,111.5,37.7z"/>
<g>
	<path class="st1" d="M16,21.3c0-2.7,2-4.6,4.8-4.6c1.4,0,2.7,0.5,3.5,1.5l-1.1,1c-0.6-0.7-1.4-1-2.4-1c-1.8,0-3.2,1.3-3.2,3.1
		s1.3,3.1,3.2,3.1c0.9,0,1.7-0.3,2.4-1.1l1.1,1c-0.8,1-2.1,1.5-3.5,1.5C18.1,25.9,16,23.9,16,21.3z"/>
	<path class="st1" d="M24.9,22.3c0-2,1.5-3.5,3.6-3.5c2.1,0,3.6,1.4,3.6,3.5s-1.5,3.5-3.6,3.5C26.5,25.8,24.9,24.4,24.9,22.3z
		 M30.6,22.3c0-1.3-0.9-2.1-2-2.1c-1.1,0-2,0.8-2,2.1c0,1.3,0.9,2.1,2,2.1C29.7,24.5,30.6,23.6,30.6,22.3z"/>
	<path class="st1" d="M45.1,21.8v3.9h-1.6V22c0-1.2-0.6-1.8-1.5-1.8c-1,0-1.8,0.7-1.8,2v3.4h-1.6V22c0-1.2-0.6-1.8-1.5-1.8
		c-1.1,0-1.8,0.7-1.8,2v3.4h-1.6v-6.8h1.5v0.9c0.5-0.6,1.3-0.9,2.2-0.9c1,0,1.8,0.4,2.3,1.1c0.5-0.7,1.5-1.1,2.5-1.1
		C43.9,18.9,45.1,19.8,45.1,21.8z"/>
	<path class="st1" d="M54.3,22.3c0,2.1-1.5,3.5-3.4,3.5c-0.9,0-1.6-0.3-2.2-0.9v3.3h-1.6v-9.3h1.5v0.9c0.5-0.6,1.3-1,2.3-1
		C52.8,18.9,54.3,20.2,54.3,22.3z M52.7,22.3c0-1.3-0.9-2.1-2-2.1c-1.1,0-2,0.8-2,2.1c0,1.3,0.9,2.1,2,2.1
		C51.8,24.5,52.7,23.6,52.7,22.3z"/>
	<path class="st1" d="M59.8,18.9v1.5c-0.1,0-0.3,0-0.4,0c-1.2,0-2,0.7-2,2.1v3.3h-1.6v-6.8h1.5v1C57.8,19.2,58.6,18.9,59.8,18.9z"/>
	<path class="st1" d="M66.8,21.8v4h-1.5v-0.8c-0.4,0.6-1.1,0.9-2.1,0.9c-1.6,0-2.5-0.9-2.5-2c0-1.1,0.8-2,2.8-2h1.8v-0.1
		c0-0.9-0.6-1.5-1.7-1.5c-0.8,0-1.6,0.3-2.1,0.7l-0.6-1.2c0.7-0.6,1.8-0.8,2.9-0.8C65.6,18.9,66.8,19.8,66.8,21.8z M65.2,23.6v-0.8
		h-1.6c-1.1,0-1.4,0.4-1.4,0.9c0,0.6,0.5,0.9,1.3,0.9C64.2,24.7,64.9,24.3,65.2,23.6z"/>
	<path class="st1" d="M72.7,18.9v1.5c-0.1,0-0.3,0-0.4,0c-1.2,0-2,0.7-2,2.1v3.3h-1.6v-6.8h1.5v1C70.8,19.2,71.6,18.9,72.7,18.9z"/>
	<path class="st1" d="M83.6,23.7h-4.4l-0.9,2.1h-1.7l4-8.9h1.6l4,8.9h-1.7L83.6,23.7z M83,22.4l-1.7-3.9l-1.7,3.9H83z"/>
	<path class="st1" d="M93.9,21.8v3.9h-1.6V22c0-1.2-0.6-1.8-1.6-1.8c-1.1,0-1.9,0.7-1.9,2v3.4h-1.6v-9.4h1.6v3.4
		c0.5-0.6,1.3-0.9,2.3-0.9C92.6,18.9,93.9,19.8,93.9,21.8z"/>
	<path class="st1" d="M95.4,22.3c0-2,1.5-3.5,3.6-3.5c2.1,0,3.6,1.4,3.6,3.5s-1.5,3.5-3.6,3.5C96.9,25.8,95.4,24.4,95.4,22.3z
		 M101,22.3c0-1.3-0.9-2.1-2-2.1c-1.1,0-2,0.8-2,2.1c0,1.3,0.9,2.1,2,2.1C100.1,24.5,101,23.6,101,22.3z"/>
	<path class="st1" d="M108.1,18.9v1.5c-0.1,0-0.3,0-0.4,0c-1.2,0-2,0.7-2,2.1v3.3h-1.6v-6.8h1.5v1C106.1,19.2,106.9,18.9,108.1,18.9
		z"/>
	<path class="st1" d="M115.1,21.8v4h-1.5v-0.8c-0.4,0.6-1.1,0.9-2.1,0.9c-1.6,0-2.5-0.9-2.5-2c0-1.1,0.8-2,2.8-2h1.8v-0.1
		c0-0.9-0.6-1.5-1.7-1.5c-0.8,0-1.6,0.3-2.1,0.7l-0.6-1.2c0.7-0.6,1.8-0.8,2.9-0.8C113.9,18.9,115.1,19.8,115.1,21.8z M113.5,23.6
		v-0.8h-1.6c-1.1,0-1.4,0.4-1.4,0.9c0,0.6,0.5,0.9,1.3,0.9C112.5,24.7,113.2,24.3,113.5,23.6z"/>
</g>
</svg>
