<?xml version="1.0" encoding="utf-8"?>
<!-- Generator: Adobe Illustrator 23.1.1, SVG Export Plug-In . SVG Version: 6.00 Build 0)  -->
<svg version="1.1" id="Layer_1" xmlns="http://www.w3.org/2000/svg" xmlns:xlink="http://www.w3.org/1999/xlink" x="0px" y="0px"
	 width="200px" height="56.5px" viewBox="0 0 200 56.5" style="enable-background:new 0 0 200 56.5;" xml:space="preserve">
<style type="text/css">
	.st0{fill:#1F8AE6;}
	.st1{enable-background:new    ;}
	.st2{fill:#FFFFFF;}
</style>
<path class="st0" d="M156,43.9H44c-8.2,0-14.9-6.7-14.9-14.9v0C29.1,20.7,35.8,14,44,14h112c8.2,0,14.9,6.7,14.9,14.9v0
	C170.9,37.2,164.2,43.9,156,43.9z"/>
<g class="st1">
	<path class="st2" d="M42.5,29.1c0-2.6,2-4.5,4.8-4.5c1.5,0,2.8,0.6,3.6,1.6l-1.3,1.2c-0.6-0.7-1.3-1-2.2-1c-1.6,0-2.8,1.2-2.8,2.8
		c0,1.7,1.2,2.8,2.8,2.8c0.9,0,1.6-0.4,2.2-1l1.3,1.2c-0.8,1-2.1,1.6-3.6,1.6C44.6,33.6,42.5,31.7,42.5,29.1z"/>
	<path class="st2" d="M51.4,30.1c0-2,1.6-3.5,3.7-3.5c2.1,0,3.7,1.4,3.7,3.5c0,2-1.6,3.5-3.7,3.5C53,33.6,51.4,32.1,51.4,30.1z
		 M56.8,30.1c0-1.2-0.7-1.9-1.7-1.9c-1,0-1.7,0.7-1.7,1.9c0,1.2,0.8,1.9,1.7,1.9C56.1,32,56.8,31.3,56.8,30.1z"/>
	<path class="st2" d="M71.5,29.6v3.9h-2v-3.6c0-1.1-0.5-1.6-1.3-1.6c-0.9,0-1.5,0.6-1.5,1.8v3.4h-2v-3.6c0-1.1-0.5-1.6-1.3-1.6
		c-0.9,0-1.5,0.6-1.5,1.8v3.4h-2v-6.7H62v0.8c0.5-0.6,1.3-0.9,2.1-0.9c0.9,0,1.7,0.4,2.2,1.1c0.5-0.7,1.4-1.1,2.4-1.1
		C70.4,26.6,71.5,27.5,71.5,29.6z"/>
	<path class="st2" d="M80.6,30.1c0,2.1-1.5,3.5-3.4,3.5c-0.8,0-1.5-0.3-2-0.8v3.1h-2v-9.2h1.9v0.8c0.5-0.6,1.2-0.9,2.1-0.9
		C79.1,26.6,80.6,28,80.6,30.1z M78.6,30.1c0-1.2-0.7-1.9-1.7-1.9c-1,0-1.7,0.7-1.7,1.9c0,1.2,0.7,1.9,1.7,1.9
		C77.9,32,78.6,31.3,78.6,30.1z"/>
	<path class="st2" d="M86.1,26.6v1.8c-0.2,0-0.3,0-0.4,0c-1.1,0-1.8,0.6-1.8,1.9v3.2h-2v-6.7h1.9v0.9C84.3,27,85.1,26.6,86.1,26.6z"
		/>
	<path class="st2" d="M93.2,29.6v3.9h-1.8v-0.8c-0.4,0.6-1.1,0.9-2.1,0.9c-1.6,0-2.5-0.9-2.5-2c0-1.2,0.8-2,2.9-2h1.6
		c0-0.8-0.5-1.3-1.6-1.3c-0.7,0-1.5,0.2-1.9,0.6L87,27.4c0.7-0.5,1.8-0.8,2.9-0.8C92,26.6,93.2,27.6,93.2,29.6z M91.2,31.3v-0.7
		h-1.3c-0.9,0-1.2,0.3-1.2,0.8c0,0.5,0.4,0.8,1.1,0.8C90.4,32.3,91,32,91.2,31.3z"/>
	<path class="st2" d="M99.2,26.6v1.8c-0.2,0-0.3,0-0.4,0c-1.1,0-1.8,0.6-1.8,1.9v3.2h-2v-6.7h1.9v0.9C97.3,27,98.1,26.6,99.2,26.6z"
		/>
	<path class="st2" d="M103.5,29.1c0-2.6,2-4.5,4.8-4.5c1.5,0,2.8,0.6,3.6,1.6l-1.3,1.2c-0.6-0.7-1.3-1-2.2-1c-1.6,0-2.8,1.2-2.8,2.8
		c0,1.7,1.2,2.8,2.8,2.8c0.9,0,1.6-0.4,2.2-1l1.3,1.2c-0.8,1-2.1,1.6-3.6,1.6C105.5,33.6,103.5,31.7,103.5,29.1z"/>
	<path class="st2" d="M117.3,26.6v1.8c-0.2,0-0.3,0-0.4,0c-1.1,0-1.8,0.6-1.8,1.9v3.2h-2v-6.7h1.9v0.9
		C115.4,27,116.2,26.6,117.3,26.6z"/>
	<path class="st2" d="M125,30.6h-5.1c0.2,0.8,0.9,1.4,1.9,1.4c0.7,0,1.2-0.2,1.7-0.7l1,1.1c-0.6,0.7-1.6,1.1-2.8,1.1
		c-2.3,0-3.9-1.5-3.9-3.5c0-2,1.5-3.5,3.6-3.5c2,0,3.5,1.3,3.5,3.5C125,30.3,125,30.5,125,30.6z M119.8,29.5h3.3
		c-0.1-0.9-0.8-1.4-1.7-1.4C120.6,28.1,120,28.6,119.8,29.5z M121.8,25.9h-1.5L122,24h2.1L121.8,25.9z"/>
	<path class="st2" d="M133.2,24.2v9.3h-1.9v-0.8c-0.5,0.6-1.2,0.9-2.1,0.9c-1.9,0-3.4-1.4-3.4-3.5c0-2.1,1.5-3.5,3.4-3.5
		c0.8,0,1.5,0.3,2,0.8v-3.3H133.2z M131.3,30.1c0-1.2-0.8-1.9-1.7-1.9c-1,0-1.7,0.7-1.7,1.9c0,1.2,0.8,1.9,1.7,1.9
		C130.5,32,131.3,31.3,131.3,30.1z"/>
	<path class="st2" d="M134.7,24.7c0-0.6,0.5-1.1,1.2-1.1s1.2,0.5,1.2,1.1c0,0.7-0.5,1.1-1.2,1.1S134.7,25.3,134.7,24.7z M135,26.7h2
		v6.7h-2V26.7z"/>
	<path class="st2" d="M143.1,33.1c-0.4,0.3-1,0.4-1.6,0.4c-1.6,0-2.5-0.8-2.5-2.4v-2.8h-1v-1.5h1v-1.6h2v1.6h1.7v1.5h-1.7v2.7
		c0,0.6,0.3,0.9,0.8,0.9c0.3,0,0.6-0.1,0.8-0.3L143.1,33.1z"/>
	<path class="st2" d="M143.5,30.1c0-2,1.6-3.5,3.7-3.5c2.1,0,3.7,1.4,3.7,3.5c0,2-1.6,3.5-3.7,3.5C145.1,33.6,143.5,32.1,143.5,30.1
		z M148.9,30.1c0-1.2-0.7-1.9-1.7-1.9s-1.7,0.7-1.7,1.9c0,1.2,0.8,1.9,1.7,1.9S148.9,31.3,148.9,30.1z"/>
	<path class="st2" d="M151.5,32.8l0.7-1.4c0.6,0.4,1.5,0.7,2.3,0.7c0.9,0,1.2-0.2,1.2-0.6c0-1.1-4.1,0-4.1-2.7
		c0-1.3,1.2-2.2,3.1-2.2c0.9,0,2,0.2,2.6,0.6l-0.7,1.4c-0.7-0.4-1.3-0.5-1.9-0.5c-0.9,0-1.3,0.3-1.3,0.6c0,1.2,4.1,0,4.1,2.7
		c0,1.3-1.2,2.1-3.2,2.1C153.3,33.6,152.2,33.3,151.5,32.8z"/>
</g>
</svg>
