<?xml version="1.0" encoding="utf-8"?>
<!-- Generator: Adobe Illustrator 23.1.1, SVG Export Plug-In . SVG Version: 6.00 Build 0)  -->
<svg version="1.1" id="Layer_1" xmlns="http://www.w3.org/2000/svg" xmlns:xlink="http://www.w3.org/1999/xlink" x="0px" y="0px"
	 width="116.4px" height="36px" viewBox="0 0 116.4 36" style="enable-background:new 0 0 116.4 36;" xml:space="preserve">
<style type="text/css">
	.st0{fill:#1A1D3E;}
	.st1{fill:#FFFFFF;}
</style>
<rect x="0.5" y="-0.4" class="st0" width="116.3" height="36.4"/>
<g>
	<path class="st1" d="M24.6,11.3c0-2.5,1.9-4.3,4.5-4.3c1.4,0,2.5,0.5,3.3,1.4l-1,0.9c-0.6-0.7-1.4-1-2.2-1c-1.7,0-3,1.2-3,3
		s1.3,3,3,3c0.9,0,1.6-0.3,2.2-1l1,1c-0.8,0.9-2,1.4-3.3,1.4C26.5,15.7,24.6,13.9,24.6,11.3z"/>
	<path class="st1" d="M33.1,11.3c0-2.5,1.9-4.3,4.5-4.3s4.5,1.8,4.5,4.3s-1.9,4.3-4.5,4.3S33.1,13.8,33.1,11.3z M40.6,11.3
		c0-1.7-1.3-3-3-3c-1.7,0-3,1.2-3,3c0,1.7,1.3,3,3,3C39.4,14.3,40.6,13.1,40.6,11.3z"/>
	<path class="st1" d="M51.6,15.5l0-5.6l-2.8,4.6h-0.7L45.3,10v5.5h-1.5V7.1h1.3l3.3,5.6l3.3-5.6H53l0,8.4H51.6z"/>
	<path class="st1" d="M62.3,10.1c0,1.8-1.4,3-3.6,3h-1.9v2.4h-1.6V7.1h3.5C61,7.1,62.3,8.3,62.3,10.1z M60.8,10.1
		c0-1.1-0.7-1.7-2.1-1.7h-1.8v3.3h1.8C60.1,11.8,60.8,11.2,60.8,10.1z"/>
	<path class="st1" d="M69.4,15.5l-1.7-2.5c-0.1,0-0.2,0-0.3,0h-1.9v2.4h-1.6V7.1h3.5c2.2,0,3.6,1.1,3.6,3c0,1.3-0.6,2.2-1.8,2.7
		l1.9,2.8H69.4z M67.3,8.5h-1.8v3.3h1.8c1.4,0,2.1-0.6,2.1-1.7C69.4,9.1,68.7,8.5,67.3,8.5z"/>
	<path class="st1" d="M78.1,13.6h-4.2l-0.8,1.9h-1.6l3.8-8.4h1.5l3.8,8.4H79L78.1,13.6z M77.6,12.4L76,8.7l-1.6,3.7H77.6z"/>
	<path class="st1" d="M87.2,15.5l-1.7-2.5c-0.1,0-0.2,0-0.3,0h-1.9v2.4h-1.6V7.1h3.5c2.2,0,3.6,1.1,3.6,3c0,1.3-0.6,2.2-1.8,2.7
		l1.9,2.8H87.2z M85,8.5h-1.8v3.3H85c1.4,0,2.1-0.6,2.1-1.7C87.1,9.1,86.4,8.5,85,8.5z"/>
	<path class="st1" d="M20.3,24.3c0-2.5,1.9-4.3,4.5-4.3c1.4,0,2.5,0.5,3.3,1.4l-1,0.9c-0.6-0.7-1.4-1-2.2-1c-1.7,0-3,1.2-3,3
		c0,1.7,1.3,3,3,3c0.9,0,1.6-0.3,2.2-1l1,1c-0.8,0.9-2,1.4-3.3,1.4C22.2,28.7,20.3,26.9,20.3,24.3z"/>
	<path class="st1" d="M28.8,24.3c0-2.5,1.9-4.3,4.5-4.3s4.5,1.8,4.5,4.3c0,2.5-1.9,4.3-4.5,4.3S28.8,26.8,28.8,24.3z M36.3,24.3
		c0-1.7-1.3-3-3-3c-1.7,0-3,1.2-3,3c0,1.7,1.3,3,3,3C35,27.3,36.3,26.1,36.3,24.3z"/>
	<path class="st1" d="M47,20.1v8.4h-1.3l-4.6-5.7v5.7h-1.5v-8.4h1.3l4.6,5.7v-5.7H47z"/>
	<path class="st1" d="M50.9,21.5h-2.8v-1.3h7.1v1.3h-2.8v7.1h-1.6V21.5z"/>
	<path class="st1" d="M62.8,27.2v1.3h-6.3v-8.4h6.1v1.3H58v2.2h4.1v1.3H58v2.3H62.8z"/>
	<path class="st1" d="M72,20.1v8.4h-1.3l-4.6-5.7v5.7h-1.5v-8.4h1.3l4.6,5.7v-5.7H72z"/>
	<path class="st1" d="M74.2,20.1h1.6v8.4h-1.6V20.1z"/>
	<path class="st1" d="M78.1,20.1h3.7c2.7,0,4.6,1.7,4.6,4.2s-1.9,4.2-4.6,4.2h-3.7V20.1z M81.7,27.2c1.9,0,3.1-1.1,3.1-2.9
		c0-1.7-1.2-2.9-3.1-2.9h-2v5.8H81.7z"/>
	<path class="st1" d="M87.4,24.3c0-2.5,1.9-4.3,4.5-4.3s4.5,1.8,4.5,4.3c0,2.5-1.9,4.3-4.5,4.3S87.4,26.8,87.4,24.3z M94.8,24.3
		c0-1.7-1.3-3-3-3c-1.7,0-3,1.2-3,3c0,1.7,1.3,3,3,3C93.6,27.3,94.8,26.1,94.8,24.3z"/>
</g>
</svg>
