<svg xmlns="http://www.w3.org/2000/svg" width="47" height="47" viewBox="0 0 47 47">
  <g id="Group_53" data-name="Group 53" transform="translate(-502 -344)">
    <rect id="Rectangle_41" data-name="Rectangle 41" width="47" height="47" rx="6" transform="translate(502 344)" fill="#26aeba"/>
    <g id="Group_49" data-name="Group 49" transform="matrix(0.998, -0.07, 0.07, 0.998, -70.836, -212.127)">
      <g id="Group_48" data-name="Group 48" transform="translate(536.802 603.562)">
        <path id="Path_56" data-name="Path 56" d="M569.046,629.54a11.971,11.971,0,0,0,1.157-5.171,12.144,12.144,0,0,0-11.569-12.083,12.138,12.138,0,0,0-23.827,3.234,11.969,11.969,0,0,0,1.157,5.171l-1.137,5.687a1.038,1.038,0,0,0,1.218,1.221l5.757-1.138a11.927,11.927,0,0,0,4.575,1.142,12.118,12.118,0,0,0,16.831,7.706c6.306,1.247,5.814,1.158,5.959,1.158a1.037,1.037,0,0,0,1.017-1.24Zm-26.628-5.088a1.041,1.041,0,0,0-.673-.094l-4.579.906.9-4.511a1.036,1.036,0,0,0-.094-.675,9.92,9.92,0,0,1-1.093-4.557,10.066,10.066,0,0,1,19.612-3.151,12.113,12.113,0,0,0-10.5,13.128,9.876,9.876,0,0,1-3.573-1.045Zm24.525,5.15.9,4.511-4.579-.905a1.035,1.035,0,0,0-.673.094,9.92,9.92,0,0,1-4.557,1.092A10.024,10.024,0,1,1,568.13,624.37a9.915,9.915,0,0,1-1.093,4.557,1.037,1.037,0,0,0-.094.675Zm0,0" transform="translate(-534.807 -603.422)" fill="#fff"/>
      </g>
    </g>
  </g>
</svg>
