<?xml version="1.0" encoding="utf-8"?>
<!-- Generator: Adobe Illustrator 23.1.1, SVG Export Plug-In . SVG Version: 6.00 Build 0)  -->
<svg version="1.1" id="Layer_1" xmlns="http://www.w3.org/2000/svg" xmlns:xlink="http://www.w3.org/1999/xlink" x="0px" y="0px"
	 width="144px" height="45px" viewBox="0 0 144 45" style="enable-background:new 0 0 144 45;" xml:space="preserve">
<style type="text/css">
	.st0{fill:#1E84DC;}
	.st1{enable-background:new    ;}
	.st2{fill:#FFFFFF;}
</style>
<g id="Group_118" transform="translate(-1097 -332)">
	<path id="Rectangle_7" class="st0" d="M1132.6,337.9h72.9c9.2,0,16.6,7.4,16.6,16.6l0,0c0,9.2-7.4,16.6-16.6,16.6h-72.9
		c-9.2,0-16.6-7.4-16.6-16.6l0,0C1116,345.3,1123.4,337.9,1132.6,337.9z"/>
	<g id="Group_120" transform="translate(-1094 -612)">
		<g class="st1">
			<path class="st2" d="M2217.3,966.2c0-2.9,2.2-5,5.2-5c1.5,0,2.8,0.5,3.7,1.5l-0.9,0.9c-0.8-0.8-1.7-1.2-2.8-1.2
				c-2.2,0-3.8,1.6-3.8,3.8s1.6,3.8,3.8,3.8c1.1,0,2-0.4,2.8-1.2l0.9,0.9c-0.9,1-2.2,1.5-3.7,1.5
				C2219.5,971.2,2217.3,969.1,2217.3,966.2z"/>
			<path class="st2" d="M2232,963.6v1.3c-0.1,0-0.2,0-0.3,0c-1.4,0-2.3,0.9-2.3,2.5v3.7h-1.3v-7.4h1.3v1.2
				C2229.7,964.1,2230.7,963.6,2232,963.6z"/>
			<path class="st2" d="M2240.2,967.8h-6c0.2,1.3,1.2,2.2,2.7,2.2c0.9,0,1.6-0.3,2.1-0.9l0.7,0.9c-0.7,0.8-1.7,1.2-2.9,1.2
				c-2.4,0-4-1.6-4-3.8c0-2.2,1.6-3.8,3.7-3.8s3.7,1.5,3.7,3.8C2240.2,967.5,2240.2,967.7,2240.2,967.8z M2234.2,966.9h4.7
				c-0.1-1.2-1.1-2.1-2.4-2.1C2235.3,964.7,2234.3,965.6,2234.2,966.9z"/>
			<path class="st2" d="M2247.7,966.6v4.5h-1.3v-1c-0.4,0.7-1.3,1.1-2.4,1.1c-1.7,0-2.7-0.9-2.7-2.2c0-1.2,0.8-2.2,3-2.2h2.1v-0.3
				c0-1.1-0.7-1.8-2-1.8c-0.9,0-1.8,0.3-2.3,0.8l-0.6-1c0.8-0.6,1.9-0.9,3.1-0.9C2246.6,963.6,2247.7,964.6,2247.7,966.6z
				 M2246.4,968.8v-1h-2.1c-1.3,0-1.7,0.5-1.7,1.1c0,0.7,0.6,1.2,1.6,1.2C2245.3,970.1,2246.1,969.7,2246.4,968.8z"/>
			<path class="st2" d="M2254.2,963.6v1.3c-0.1,0-0.2,0-0.3,0c-1.4,0-2.3,0.9-2.3,2.5v3.7h-1.3v-7.4h1.3v1.2
				C2252,964.1,2252.9,963.6,2254.2,963.6z"/>
			<path class="st2" d="M2259.1,966.2c0-2.9,2.2-5,5.2-5c1.5,0,2.8,0.5,3.7,1.5l-0.9,0.9c-0.8-0.8-1.7-1.2-2.8-1.2
				c-2.2,0-3.8,1.6-3.8,3.8s1.6,3.8,3.8,3.8c1.1,0,2-0.4,2.8-1.2l0.9,0.9c-0.9,1-2.2,1.5-3.7,1.5
				C2261.3,971.2,2259.1,969.1,2259.1,966.2z"/>
			<path class="st2" d="M2276.5,963.7v7.4h-1.3V970c-0.5,0.8-1.5,1.2-2.5,1.2c-1.9,0-3.2-1-3.2-3.2v-4.3h1.3v4.1
				c0,1.5,0.7,2.2,2,2.2c1.4,0,2.3-0.9,2.3-2.5v-3.8H2276.5z"/>
			<path class="st2" d="M2285.7,967.8h-6c0.2,1.3,1.2,2.2,2.7,2.2c0.9,0,1.6-0.3,2.1-0.9l0.7,0.9c-0.7,0.8-1.7,1.2-2.9,1.2
				c-2.4,0-4-1.6-4-3.8c0-2.2,1.6-3.8,3.7-3.8s3.7,1.5,3.7,3.8C2285.7,967.5,2285.7,967.7,2285.7,967.8z M2279.7,966.9h4.7
				c-0.1-1.2-1.1-2.1-2.4-2.1C2280.8,964.7,2279.8,965.6,2279.7,966.9z"/>
			<path class="st2" d="M2294.6,966.8v4.3h-1.3V967c0-1.5-0.7-2.2-2-2.2c-1.4,0-2.3,0.9-2.3,2.5v3.8h-1.3v-7.4h1.3v1.1
				c0.5-0.8,1.5-1.2,2.7-1.2C2293.3,963.6,2294.6,964.6,2294.6,966.8z"/>
			<path class="st2" d="M2301.2,970.6c-0.4,0.3-1,0.5-1.6,0.5c-1.5,0-2.3-0.8-2.3-2.3v-4.1h-1.3v-1.1h1.3v-1.6h1.3v1.6h2.1v1.1h-2.1
				v4c0,0.8,0.4,1.2,1.2,1.2c0.4,0,0.8-0.1,1-0.3L2301.2,970.6z"/>
			<path class="st2" d="M2308.7,966.6v4.5h-1.3v-1c-0.4,0.7-1.3,1.1-2.4,1.1c-1.7,0-2.7-0.9-2.7-2.2c0-1.2,0.8-2.2,3-2.2h2.1v-0.3
				c0-1.1-0.7-1.8-2-1.8c-0.9,0-1.8,0.3-2.3,0.8l-0.6-1c0.8-0.6,1.9-0.9,3.1-0.9C2307.6,963.6,2308.7,964.6,2308.7,966.6z
				 M2307.4,968.8v-1h-2.1c-1.3,0-1.7,0.5-1.7,1.1c0,0.7,0.6,1.2,1.6,1.2C2306.2,970.1,2307,969.7,2307.4,968.8z"/>
		</g>
	</g>
</g>
</svg>
