<?xml version="1.0" encoding="utf-8"?>
<!-- Generator: Adobe Illustrator 23.1.1, SVG Export Plug-In . SVG Version: 6.00 Build 0)  -->
<svg version="1.1" id="Layer_1" xmlns="http://www.w3.org/2000/svg" xmlns:xlink="http://www.w3.org/1999/xlink" x="0px" y="0px"
	 width="99.9px" height="35.7px" viewBox="0 0 99.9 35.7" style="enable-background:new 0 0 99.9 35.7;" xml:space="preserve">
<style type="text/css">
	.st0{fill:#1F8AE6;}
	.st1{enable-background:new    ;}
	.st2{fill:#FFFFFF;}
</style>
<g id="Group_106" transform="translate(0.287)">
	<g>
		<path id="Rectangle_23_1_" class="st0" d="M14.8,4.2h69.6c7.6,0,13.6,6.1,13.6,13.6l0,0c0,7.6-6.1,13.6-13.6,13.6H14.8
			c-7.6,0-13.6-6.1-13.6-13.6l0,0C1.1,10.4,7.3,4.2,14.8,4.2z"/>
	</g>
</g>
<g class="st1">
	<path class="st2" d="M28.7,11.6v1.8h-5.2v2.1h4.8v1.7h-4.8v2.4h5.3v1.8h-7.5v-9.8H28.7z"/>
	<path class="st2" d="M31.9,14.3v0.9l0,0c0.3-0.4,0.6-0.7,0.9-0.8c0.4-0.2,0.7-0.3,1.2-0.3s0.8,0.1,1.2,0.3c0.4,0.2,0.7,0.5,0.8,0.9
		c0.2-0.3,0.5-0.6,0.8-0.8c0.4-0.3,0.7-0.4,1.3-0.4c0.4,0,0.7,0,1,0.1c0.3,0.1,0.6,0.3,0.8,0.5c0.2,0.2,0.4,0.5,0.6,0.7
		c0.1,0.3,0.2,0.7,0.2,1.2v4.8h-2v-4c0-0.3,0-0.5,0-0.7s-0.1-0.4-0.2-0.6c-0.1-0.2-0.2-0.3-0.4-0.4c-0.2-0.1-0.4-0.1-0.7-0.1
		c-0.3,0-0.5,0.1-0.7,0.2c-0.2,0.1-0.3,0.3-0.4,0.4c-0.1,0.2-0.2,0.4-0.2,0.6c0,0.2-0.1,0.5-0.1,0.7v3.9h-2v-4c0-0.2,0-0.4,0-0.7
		c0-0.2-0.1-0.4-0.1-0.6c-0.1-0.2-0.2-0.3-0.4-0.4c-0.2-0.1-0.4-0.2-0.7-0.2c-0.1,0-0.2,0-0.4,0.1c-0.2,0-0.3,0.1-0.5,0.3
		c-0.2,0.1-0.3,0.3-0.4,0.5c-0.1,0.2-0.2,0.5-0.2,0.8v4.1h-2v-7.1H31.9z"/>
	<path class="st2" d="M44.4,14.3v0.9l0,0c0.3-0.4,0.6-0.7,0.9-0.8c0.4-0.2,0.7-0.3,1.2-0.3c0.6,0,1,0.1,1.4,0.3
		c0.4,0.2,0.7,0.5,1,0.8c0.3,0.4,0.5,0.7,0.6,1.2c0.1,0.5,0.2,0.9,0.2,1.5c0,0.5-0.1,0.9-0.2,1.4c-0.1,0.5-0.3,0.8-0.6,1.2
		c-0.3,0.4-0.6,0.7-0.9,0.8c-0.4,0.2-0.8,0.3-1.4,0.3c-0.5,0-0.8-0.1-1.2-0.3c-0.4-0.2-0.7-0.5-0.9-0.7l0,0v3.4h-2v-9.7H44.4z
		 M46.9,20c0.2-0.1,0.4-0.3,0.6-0.5c0.1-0.2,0.2-0.5,0.3-0.7c0.1-0.3,0.1-0.6,0.1-0.8c0-0.3,0-0.6-0.1-0.8c-0.1-0.3-0.2-0.6-0.3-0.7
		c-0.1-0.2-0.3-0.4-0.6-0.6c-0.2-0.1-0.5-0.2-0.7-0.2s-0.6,0.1-0.8,0.2c-0.2,0.1-0.4,0.3-0.6,0.6c-0.1,0.2-0.2,0.5-0.3,0.7
		c-0.1,0.3-0.1,0.6-0.1,0.8c0,0.3,0,0.6,0.1,0.8c0.1,0.3,0.2,0.6,0.3,0.7c0.1,0.2,0.3,0.4,0.6,0.5c0.2,0.1,0.5,0.2,0.8,0.2
		C46.4,20.2,46.7,20.1,46.9,20z"/>
	<path class="st2" d="M53.1,19.8c0.3,0.3,0.7,0.5,1.3,0.5c0.4,0,0.7-0.1,1-0.3c0.3-0.2,0.5-0.4,0.6-0.7h1.7
		c-0.3,0.8-0.7,1.5-1.3,1.9c-0.7,0.4-1.2,0.6-2.1,0.6c-0.6,0-1-0.1-1.5-0.3c-0.5-0.2-0.8-0.5-1.1-0.7c-0.3-0.4-0.6-0.7-0.7-1.2
		c-0.2-0.5-0.3-0.9-0.3-1.5c0-0.6,0.1-1,0.3-1.5c0.2-0.5,0.5-0.8,0.7-1.2c0.3-0.4,0.7-0.6,1.1-0.7c0.5-0.2,0.9-0.3,1.5-0.3
		s1.1,0.1,1.6,0.4c0.5,0.3,0.8,0.6,1.1,0.9s0.5,0.8,0.7,1.3c0.1,0.5,0.2,1,0.1,1.6h-5.1C52.6,19,52.8,19.5,53.1,19.8z M55.2,16
		c-0.3-0.3-0.6-0.4-1-0.4c-0.3,0-0.6,0.1-0.7,0.2c-0.2,0.1-0.4,0.3-0.5,0.4c-0.1,0.2-0.2,0.3-0.3,0.5c-0.1,0.2-0.1,0.4-0.1,0.5h3.2
		C55.7,16.7,55.5,16.3,55.2,16z"/>
	<path class="st2" d="M62.1,15.8h-3.5v-1.5h6v1.5L60.9,20h3.9v1.5h-6.5V20L62.1,15.8z"/>
	<path class="st2" d="M65.9,16.6c0-0.5,0.2-0.8,0.4-1.1c0.2-0.3,0.5-0.6,0.7-0.7c0.3-0.2,0.7-0.3,1-0.4s0.7-0.1,1.2-0.1
		c0.4,0,0.7,0,1.1,0.1c0.4,0.1,0.7,0.2,1,0.3c0.3,0.2,0.6,0.4,0.7,0.7c0.2,0.3,0.3,0.7,0.3,1V20c0,0.3,0,0.7,0.1,0.9
		c0,0.3,0.1,0.6,0.2,0.7h-2c0-0.1-0.1-0.2-0.1-0.4c0-0.1,0-0.2-0.1-0.4c-0.3,0.3-0.7,0.6-1.1,0.7c-0.5,0.1-0.8,0.2-1.3,0.2
		c-0.4,0-0.7,0-0.9-0.1s-0.6-0.2-0.7-0.4c-0.2-0.2-0.4-0.4-0.6-0.7c-0.1-0.3-0.2-0.6-0.2-0.9s0.1-0.7,0.2-1c0.2-0.3,0.3-0.5,0.6-0.7
		c0.2-0.2,0.5-0.3,0.7-0.4s0.6-0.2,0.8-0.2s0.6-0.1,0.8-0.1s0.6-0.1,0.7-0.1c0.2-0.1,0.4-0.1,0.6-0.3c0.1-0.1,0.2-0.3,0.2-0.5
		s0-0.4-0.1-0.5s-0.2-0.2-0.3-0.3c-0.1-0.1-0.3-0.1-0.4-0.1c-0.2,0-0.3,0-0.5,0c-0.4,0-0.7,0.1-0.9,0.3c-0.2,0.2-0.4,0.5-0.4,0.8h-2
		V16.6z M70.4,18c-0.1,0.1-0.2,0.1-0.3,0.2c-0.1,0-0.3,0.1-0.4,0.1c-0.2,0-0.3,0.1-0.5,0.1c-0.2,0-0.3,0-0.5,0.1
		c-0.2,0-0.3,0.1-0.5,0.1c-0.2,0-0.3,0.1-0.4,0.2c-0.1,0.1-0.2,0.2-0.3,0.3c-0.1,0.1-0.1,0.3-0.1,0.5c0,0.2,0,0.3,0.1,0.5
		c0.1,0.1,0.2,0.2,0.3,0.3c0.1,0.1,0.3,0.1,0.4,0.2c0.2,0,0.3,0,0.5,0c0.4,0,0.7-0.1,0.9-0.2c0.2-0.1,0.4-0.3,0.5-0.5
		c0.1-0.2,0.2-0.4,0.2-0.6s0-0.4,0-0.5C70.4,18.7,70.4,18,70.4,18z"/>
	<path class="st2" d="M75.7,14.3v1.3l0,0c0.1-0.2,0.2-0.5,0.4-0.7c0.2-0.2,0.4-0.4,0.6-0.5c0.2-0.1,0.4-0.3,0.7-0.3
		c0.2-0.1,0.5-0.1,0.7-0.1c0.1,0,0.3,0,0.5,0.1V16c-0.1,0-0.2,0-0.4-0.1c-0.1,0-0.3,0-0.4,0c-0.4,0-0.7,0.1-0.9,0.2
		c-0.3,0.1-0.5,0.3-0.6,0.5c-0.2,0.2-0.3,0.5-0.3,0.7c-0.1,0.3-0.1,0.6-0.1,0.9v3.2h-2v-7.1H75.7z"/>
</g>
</svg>
