<?xml version="1.0" encoding="utf-8"?>
<!-- Generator: Adobe Illustrator 24.2.0, SVG Export Plug-In . SVG Version: 6.00 Build 0)  -->
<svg version="1.1" id="Layer_1" xmlns="http://www.w3.org/2000/svg" xmlns:xlink="http://www.w3.org/1999/xlink" x="0px" y="0px"
	 viewBox="0 0 129.1 129.1" style="enable-background:new 0 0 129.1 129.1;" xml:space="preserve">
<style type="text/css">
	.st0{fill:#1F8AE6;}
</style>
<g>
	<path class="st0" d="M55.3,77.8c-1.1,0-2.1-0.4-2.9-1.2c-1.1-1.1-1.5-2.7-1-4.2l7.8-23.6v-0.3l0.2-0.2l0.1-0.2l0.1-0.1
		c0,0,0,0,0-0.1v-0.1l0.2-0.2c0-0.1,0.1-0.1,0.2-0.2l0.1-0.1l0.3-0.3l44.3-44.3c0.8-0.8,1.8-1.2,2.9-1.2h0c1.1,0,2.2,0.4,2.9,1.2
		l15.8,15.8c0.8,0.8,1.2,1.8,1.2,2.9c0,1.1-0.4,2.1-1.2,2.9L82.1,68.5v0.1L81.5,69c-0.1,0.1-0.2,0.2-0.3,0.2c-0.1,0-0.1,0.1-0.2,0.1
		l-0.1,0.2l-0.2,0c0,0-0.1,0-0.1,0l-0.1,0.1l-0.3,0l-23.6,7.9C56.2,77.7,55.7,77.8,55.3,77.8L55.3,77.8z M58.2,70.9l15.8-5.8
		l-10.2-9L58.2,70.9z"/>
	<path class="st0" d="M24.6,123.5c-10.8,0-19.6-8.8-19.6-19.6V21.6C5,10.8,13.8,2,24.6,2h57.8c4,0,7.2,3.2,7.2,7.2
		c0,4-3.2,7.2-7.2,7.2H24.6c-2.8,0-5.1,2.3-5.1,5.2v82.3c0,2.8,2.3,5.1,5.2,5.1h82.3c2.8,0,5.1-2.3,5.1-5.2V46.1
		c0-4,3.2-7.2,7.2-7.2c4,0,7.2,3.2,7.2,7.2v57.8c0,10.8-8.8,19.6-19.6,19.6H24.6z"/>
</g>
</svg>
