<?xml version="1.0" encoding="utf-8"?>
<!-- Generator: Adobe Illustrator 23.1.1, SVG Export Plug-In . SVG Version: 6.00 Build 0)  -->
<svg version="1.1" id="Layer_1" xmlns="http://www.w3.org/2000/svg" xmlns:xlink="http://www.w3.org/1999/xlink" x="0px" y="0px"
	 width="340px" height="46px" viewBox="0 0 340 46" style="enable-background:new 0 0 340 46;" xml:space="preserve">
<style type="text/css">
	.st0{fill:#4267B2;}
	.st1{enable-background:new    ;}
	.st2{fill:#FFFFFF;}
</style>
<g id="Group_116" transform="translate(-797 -510)">
	<path id="Rectangle_92" class="st0" d="M820,510h294c12.7,0,23,10.3,23,23l0,0c0,12.7-10.3,23-23,23H820c-12.7,0-23-10.3-23-23l0,0
		C797,520.3,807.3,510,820,510z"/>
	<g id="Group_112" transform="translate(15.711 68)">
		<g class="st1">
			<path class="st2" d="M877.7,465.8c0-3.1,2.4-5.4,5.6-5.4c1.6,0,3,0.6,4,1.6l-1,0.9c-0.8-0.9-1.8-1.2-3-1.2c-2.4,0-4.1,1.7-4.1,4
				c0,2.3,1.8,4,4.1,4c1.2,0,2.1-0.4,3-1.3l1,0.9c-1,1.1-2.4,1.7-4,1.7C880.1,471.1,877.7,468.9,877.7,465.8z"/>
			<path class="st2" d="M888.1,467c0-2.4,1.8-4,4.1-4c2.4,0,4.1,1.7,4.1,4s-1.7,4.1-4.1,4.1C889.9,471.1,888.1,469.4,888.1,467z
				 M895,467c0-1.7-1.1-2.8-2.7-2.8c-1.5,0-2.7,1.1-2.7,2.8c0,1.7,1.2,2.8,2.7,2.8C893.8,469.8,895,468.7,895,467z"/>
			<path class="st2" d="M905.9,466.4v4.6h-1.4v-4.4c0-1.6-0.8-2.3-2.1-2.3c-1.5,0-2.5,0.9-2.5,2.6v4.1h-1.4v-7.9h1.4v1.2
				c0.6-0.8,1.6-1.3,2.9-1.3C904.6,463,905.9,464.1,905.9,466.4z"/>
			<path class="st2" d="M913.1,470.5c-0.4,0.4-1.1,0.6-1.7,0.6c-1.6,0-2.5-0.9-2.5-2.5v-4.4h-1.3v-1.2h1.3v-1.7h1.4v1.7h2.3v1.2
				h-2.3v4.3c0,0.9,0.5,1.3,1.2,1.3c0.4,0,0.8-0.1,1.1-0.4L913.1,470.5z"/>
			<path class="st2" d="M914.6,460.6c0-0.5,0.4-0.9,1-0.9c0.6,0,1,0.4,1,0.9c0,0.5-0.4,1-1,1C915,461.5,914.6,461.1,914.6,460.6z
				 M914.8,463.1h1.4v7.9h-1.4V463.1z"/>
			<path class="st2" d="M926.6,466.4v4.6h-1.4v-4.4c0-1.6-0.8-2.3-2.1-2.3c-1.5,0-2.5,0.9-2.5,2.6v4.1H919v-7.9h1.4v1.2
				c0.6-0.8,1.6-1.3,2.9-1.3C925.2,463,926.6,464.1,926.6,466.4z"/>
			<path class="st2" d="M936.6,463.1v7.9h-1.4v-1.2c-0.6,0.8-1.6,1.3-2.7,1.3c-2.1,0-3.4-1.1-3.4-3.5v-4.6h1.4v4.4
				c0,1.6,0.8,2.3,2.1,2.3c1.5,0,2.5-0.9,2.5-2.6v-4.1H936.6z"/>
			<path class="st2" d="M945.7,466.2v4.8h-1.4v-1c-0.5,0.7-1.4,1.1-2.6,1.1c-1.8,0-2.9-1-2.9-2.3c0-1.3,0.8-2.3,3.2-2.3h2.3v-0.3
				c0-1.2-0.7-1.9-2.1-1.9c-0.9,0-1.9,0.3-2.5,0.9L939,464c0.8-0.7,2-1,3.3-1C944.5,463,945.7,464,945.7,466.2z M944.2,468.6v-1.1
				H942c-1.4,0-1.8,0.6-1.8,1.2c0,0.8,0.7,1.3,1.8,1.3C943,470,943.9,469.5,944.2,468.6z"/>
			<path class="st2" d="M952.6,463v1.4c-0.1,0-0.2,0-0.3,0c-1.5,0-2.5,0.9-2.5,2.7v4h-1.4v-7.9h1.4v1.3
				C950.2,463.5,951.2,463,952.6,463z"/>
			<path class="st2" d="M957.8,467c0-2.4,1.8-4,4.2-4c1.4,0,2.6,0.6,3.2,1.7l-1.1,0.7c-0.5-0.8-1.3-1.1-2.2-1.1
				c-1.6,0-2.7,1.1-2.7,2.8c0,1.7,1.2,2.8,2.7,2.8c0.9,0,1.7-0.4,2.2-1.1l1.1,0.7c-0.6,1.1-1.8,1.7-3.2,1.7
				C959.6,471.1,957.8,469.4,957.8,467z"/>
			<path class="st2" d="M966.2,467c0-2.4,1.8-4,4.1-4c2.4,0,4.1,1.7,4.1,4s-1.7,4.1-4.1,4.1C968,471.1,966.2,469.4,966.2,467z
				 M973.1,467c0-1.7-1.1-2.8-2.7-2.8c-1.5,0-2.7,1.1-2.7,2.8c0,1.7,1.2,2.8,2.7,2.8C971.9,469.8,973.1,468.7,973.1,467z"/>
			<path class="st2" d="M984.1,466.4v4.6h-1.4v-4.4c0-1.6-0.8-2.3-2.1-2.3c-1.5,0-2.5,0.9-2.5,2.6v4.1h-1.4v-7.9h1.4v1.2
				c0.6-0.8,1.6-1.3,2.9-1.3C982.7,463,984.1,464.1,984.1,466.4z"/>
			<path class="st2" d="M992.5,461.8v3.7h5.3v1.3h-5.3v4.2H991v-10.5h7.4v1.3H992.5z"/>
			<path class="st2" d="M1006.3,466.2v4.8h-1.4v-1c-0.5,0.7-1.4,1.1-2.6,1.1c-1.8,0-2.9-1-2.9-2.3c0-1.3,0.8-2.3,3.2-2.3h2.3v-0.3
				c0-1.2-0.7-1.9-2.1-1.9c-0.9,0-1.9,0.3-2.5,0.9l-0.6-1.1c0.8-0.7,2-1,3.3-1C1005.1,463,1006.3,464,1006.3,466.2z M1004.9,468.6
				v-1.1h-2.2c-1.4,0-1.8,0.6-1.8,1.2c0,0.8,0.7,1.3,1.8,1.3C1003.6,470,1004.5,469.5,1004.9,468.6z"/>
			<path class="st2" d="M1008.3,467c0-2.4,1.8-4,4.2-4c1.4,0,2.6,0.6,3.2,1.7l-1.1,0.7c-0.5-0.8-1.3-1.1-2.2-1.1
				c-1.6,0-2.7,1.1-2.7,2.8c0,1.7,1.2,2.8,2.7,2.8c0.9,0,1.7-0.4,2.2-1.1l1.1,0.7c-0.6,1.1-1.8,1.7-3.2,1.7
				C1010,471.1,1008.3,469.4,1008.3,467z"/>
			<path class="st2" d="M1024.6,467.5h-6.4c0.2,1.4,1.3,2.3,2.9,2.3c0.9,0,1.7-0.3,2.3-1l0.8,0.9c-0.7,0.8-1.8,1.3-3.1,1.3
				c-2.6,0-4.3-1.7-4.3-4.1c0-2.4,1.7-4,4-4s3.9,1.6,3.9,4.1C1024.6,467.2,1024.6,467.4,1024.6,467.5z M1018.2,466.5h5.1
				c-0.2-1.3-1.2-2.3-2.5-2.3C1019.3,464.2,1018.3,465.1,1018.2,466.5z"/>
			<path class="st2" d="M1034.9,467c0,2.4-1.7,4.1-4,4.1c-1.2,0-2.2-0.5-2.8-1.3v1.3h-1.4v-11.1h1.4v4.4c0.7-0.9,1.6-1.3,2.8-1.3
				C1033.2,463,1034.9,464.6,1034.9,467z M1033.4,467c0-1.7-1.2-2.8-2.7-2.8c-1.5,0-2.7,1.1-2.7,2.8c0,1.7,1.2,2.8,2.7,2.8
				C1032.3,469.8,1033.4,468.7,1033.4,467z"/>
			<path class="st2" d="M1036.1,467c0-2.4,1.8-4,4.1-4s4.1,1.7,4.1,4s-1.7,4.1-4.1,4.1S1036.1,469.4,1036.1,467z M1042.9,467
				c0-1.7-1.1-2.8-2.7-2.8s-2.7,1.1-2.7,2.8c0,1.7,1.2,2.8,2.7,2.8S1042.9,468.7,1042.9,467z"/>
			<path class="st2" d="M1045.7,467c0-2.4,1.8-4,4.1-4c2.4,0,4.1,1.7,4.1,4s-1.7,4.1-4.1,4.1C1047.4,471.1,1045.7,469.4,1045.7,467z
				 M1052.5,467c0-1.7-1.1-2.8-2.7-2.8c-1.5,0-2.7,1.1-2.7,2.8c0,1.7,1.2,2.8,2.7,2.8C1051.3,469.8,1052.5,468.7,1052.5,467z"/>
			<path class="st2" d="M1059,467.3l-1.7,1.5v2.2h-1.4v-11.1h1.4v7.1l4.3-4h1.7l-3.3,3.3l3.7,4.7h-1.8L1059,467.3z"/>
		</g>
		<path id="Path_84" class="st2" d="M860.3,455.2v19.6c0,0.7-0.5,1.2-1.2,1.2c0,0,0,0,0,0h-5.6v-8.5h2.9l0.4-3.3h-3.3V462
			c0-1,0.3-1.6,1.6-1.6h1.7v-3c-0.9-0.1-1.7-0.1-2.6-0.1c-2.5,0-4.3,1.5-4.3,4.4v2.5h-2.9v3.3h2.9v8.5h-10.5c-0.7,0-1.2-0.5-1.2-1.2
			v-19.6c0-0.7,0.5-1.2,1.2-1.2h19.6C859.7,454,860.3,454.5,860.3,455.2z"/>
	</g>
</g>
</svg>
