<svg id="Group_7" data-name="Group 7" xmlns="http://www.w3.org/2000/svg" width="62.102" height="62.102" viewBox="0 0 62.102 62.102">
  <g id="Group_6" data-name="Group 6">
    <g id="Group_5" data-name="Group 5">
      <path id="Path_1" data-name="Path 1" d="M31.051.4A31.256,31.256,0,0,0,0,31.451,31.256,31.256,0,0,0,31.051,62.5,31.256,31.256,0,0,0,62.1,31.451,31.256,31.256,0,0,0,31.051.4Zm7.616,32.222h-4.98V50.491H26.071V32.622H22.556V26.178h3.515v-4.1c0-2.929,1.465-7.616,7.616-7.616h5.566v6.152h-4.1c-.879,0-1.465.293-1.465,1.758v3.808h5.566Z" transform="translate(0 -0.4)" fill="#34365d"/>
    </g>
  </g>
</svg>
