<?xml version="1.0" encoding="utf-8"?>
<!-- Generator: Adobe Illustrator 24.2.0, SVG Export Plug-In . SVG Version: 6.00 Build 0)  -->
<svg version="1.1" id="Layer_1" xmlns="http://www.w3.org/2000/svg" xmlns:xlink="http://www.w3.org/1999/xlink" x="0px" y="0px"
	 viewBox="0 0 129.1 129.1" style="enable-background:new 0 0 129.1 129.1;" xml:space="preserve">
<style type="text/css">
	.st0{fill:#3747A6;}
</style>
<g id="Layer_2_1_">
	<g id="Layer_1-2">
		<path class="st0" d="M129.1,62.5C127.9,26.8,98.1-1.1,62.5,0S-1.1,31,0,66.7c1.1,34,28.4,61.3,62.4,62.4c0.7,0,1.4,0,2.1,0
			c35.7,0,64.6-28.9,64.6-64.6C129.1,63.8,129.1,63.1,129.1,62.5L129.1,62.5z M101.2,100c-9.6,10-22.8,15.6-36.6,15.5
			c-0.6,0-1.1,0-1.7,0C34.8,114,13.2,89.9,14.8,61.8C16.3,35.2,38,14.2,64.6,13.6h1.7c28.2,1,50.2,24.6,49.2,52.7
			C115,78.9,109.9,90.9,101.2,100z"/>
		<path class="st0" d="M101.8,54.2c-0.3-0.8-0.9-1.4-1.7-1.5l-22.9-3.3L67,28.7c-0.4-0.7-1.1-1.2-1.9-1.2l0,0
			c-0.8,0-1.6,0.5-1.9,1.2L52.9,49.4L30,52.7c-1.2,0.2-2,1.3-1.8,2.4c0.1,0.5,0.3,0.9,0.6,1.2l16.6,16.1l-3.9,22.8
			c-0.2,1.2,0.6,2.3,1.8,2.5c0.1,0,0.2,0,0.4,0c0.3,0,0.7-0.1,1-0.2l20.4-10.8l20.5,10.8c1.1,0.6,2.4,0.1,2.9-0.9
			c0.2-0.4,0.3-0.9,0.2-1.4l-3.9-22.8l16.5-16.1C101.9,55.9,102.1,55,101.8,54.2z"/>
	</g>
</g>
</svg>
