<?xml version="1.0" encoding="utf-8"?>
<!-- Generator: Adobe Illustrator 23.1.1, SVG Export Plug-In . SVG Version: 6.00 Build 0)  -->
<svg version="1.1" id="Layer_1" xmlns="http://www.w3.org/2000/svg" xmlns:xlink="http://www.w3.org/1999/xlink" x="0px" y="0px"
	 width="340px" height="46px" viewBox="0 0 340 46" style="enable-background:new 0 0 340 46;" xml:space="preserve">
<style type="text/css">
	.st0{fill:#FFFFFF;}
	.st1{fill:none;stroke:#D1D1D1;}
	.st2{enable-background:new    ;}
	.st3{fill:#2A2D4B;}
	.st4{fill:#FBBD00;}
	.st5{fill:#0F9D58;}
	.st6{fill:#31AA52;}
	.st7{fill:#3C79E6;}
	.st8{fill:#CF2D48;}
	.st9{fill:#EB4132;}
</style>
<g id="Group_115" transform="translate(-797 -440)">
	<g id="Rectangle_9" transform="translate(797 440)">
		<path class="st0" d="M23,0h294c12.7,0,23,10.3,23,23l0,0c0,12.7-10.3,23-23,23H23C10.3,46,0,35.7,0,23l0,0C0,10.3,10.3,0,23,0z"/>
		<path class="st1" d="M23,0.5h294c12.4,0,22.5,10.1,22.5,22.5l0,0c0,12.4-10.1,22.5-22.5,22.5H23C10.6,45.5,0.5,35.4,0.5,23l0,0
			C0.5,10.6,10.6,0.5,23,0.5z"/>
	</g>
	<g id="Group_111" transform="translate(12.711)">
		<g class="st2">
			<path class="st3" d="M887.7,462.8c0-3.1,2.4-5.4,5.6-5.4c1.6,0,3,0.6,4,1.6l-1,0.9c-0.8-0.9-1.8-1.2-3-1.2c-2.4,0-4.1,1.7-4.1,4
				c0,2.3,1.8,4,4.1,4c1.2,0,2.1-0.4,3-1.3l1,0.9c-1,1.1-2.4,1.7-4,1.7C890.1,468.1,887.7,465.9,887.7,462.8z"/>
			<path class="st3" d="M898.1,464c0-2.4,1.8-4,4.1-4c2.4,0,4.1,1.7,4.1,4s-1.7,4.1-4.1,4.1C899.9,468.1,898.1,466.4,898.1,464z
				 M905,464c0-1.7-1.1-2.8-2.7-2.8c-1.5,0-2.7,1.1-2.7,2.8c0,1.7,1.2,2.8,2.7,2.8C903.8,466.8,905,465.7,905,464z"/>
			<path class="st3" d="M915.9,463.4v4.6h-1.4v-4.4c0-1.6-0.8-2.3-2.1-2.3c-1.5,0-2.5,0.9-2.5,2.6v4.1h-1.4v-7.9h1.4v1.2
				c0.6-0.8,1.6-1.3,2.9-1.3C914.6,460,915.9,461.1,915.9,463.4z"/>
			<path class="st3" d="M923.1,467.5c-0.4,0.4-1.1,0.6-1.7,0.6c-1.6,0-2.5-0.9-2.5-2.5v-4.4h-1.3v-1.2h1.3v-1.7h1.4v1.7h2.3v1.2
				h-2.3v4.3c0,0.9,0.5,1.3,1.2,1.3c0.4,0,0.8-0.1,1.1-0.4L923.1,467.5z"/>
			<path class="st3" d="M924.6,457.6c0-0.5,0.4-0.9,1-0.9c0.6,0,1,0.4,1,0.9c0,0.5-0.4,1-1,1C925,458.5,924.6,458.1,924.6,457.6z
				 M924.8,460.1h1.4v7.9h-1.4V460.1z"/>
			<path class="st3" d="M936.6,463.4v4.6h-1.4v-4.4c0-1.6-0.8-2.3-2.1-2.3c-1.5,0-2.5,0.9-2.5,2.6v4.1H929v-7.9h1.4v1.2
				c0.6-0.8,1.6-1.3,2.9-1.3C935.2,460,936.6,461.1,936.6,463.4z"/>
			<path class="st3" d="M946.6,460.1v7.9h-1.4v-1.2c-0.6,0.8-1.6,1.3-2.7,1.3c-2.1,0-3.4-1.1-3.4-3.5v-4.6h1.4v4.4
				c0,1.6,0.8,2.3,2.1,2.3c1.5,0,2.5-0.9,2.5-2.6v-4.1H946.6z"/>
			<path class="st3" d="M955.7,463.2v4.8h-1.4v-1c-0.5,0.7-1.4,1.1-2.6,1.1c-1.8,0-2.9-1-2.9-2.3c0-1.3,0.8-2.3,3.2-2.3h2.3v-0.3
				c0-1.2-0.7-1.9-2.1-1.9c-0.9,0-1.9,0.3-2.5,0.9L949,461c0.8-0.7,2-1,3.3-1C954.5,460,955.7,461,955.7,463.2z M954.2,465.6v-1.1
				H952c-1.4,0-1.8,0.6-1.8,1.2c0,0.8,0.7,1.3,1.8,1.3C953,467,953.9,466.5,954.2,465.6z"/>
			<path class="st3" d="M962.6,460v1.4c-0.1,0-0.2,0-0.3,0c-1.5,0-2.5,0.9-2.5,2.7v4h-1.4v-7.9h1.4v1.3
				C960.2,460.5,961.2,460,962.6,460z"/>
			<path class="st3" d="M967.8,464c0-2.4,1.8-4,4.2-4c1.4,0,2.6,0.6,3.2,1.7l-1.1,0.7c-0.5-0.8-1.3-1.1-2.2-1.1
				c-1.6,0-2.7,1.1-2.7,2.8c0,1.7,1.2,2.8,2.7,2.8c0.9,0,1.7-0.4,2.2-1.1l1.1,0.7c-0.6,1.1-1.8,1.7-3.2,1.7
				C969.6,468.1,967.8,466.4,967.8,464z"/>
			<path class="st3" d="M976.2,464c0-2.4,1.8-4,4.1-4c2.4,0,4.1,1.7,4.1,4s-1.7,4.1-4.1,4.1C978,468.1,976.2,466.4,976.2,464z
				 M983.1,464c0-1.7-1.1-2.8-2.7-2.8c-1.5,0-2.7,1.1-2.7,2.8c0,1.7,1.2,2.8,2.7,2.8C981.9,466.8,983.1,465.7,983.1,464z"/>
			<path class="st3" d="M994.1,463.4v4.6h-1.4v-4.4c0-1.6-0.8-2.3-2.1-2.3c-1.5,0-2.5,0.9-2.5,2.6v4.1h-1.4v-7.9h1.4v1.2
				c0.6-0.8,1.6-1.3,2.9-1.3C992.7,460,994.1,461.1,994.1,463.4z"/>
			<path class="st3" d="M1008.2,462.7h1.4v4.1c-1,0.9-2.5,1.3-4,1.3c-3.2,0-5.6-2.3-5.6-5.4c0-3.1,2.4-5.4,5.6-5.4
				c1.7,0,3.1,0.6,4,1.6l-0.9,0.9c-0.9-0.8-1.9-1.2-3-1.2c-2.4,0-4.2,1.7-4.2,4c0,2.3,1.8,4,4.2,4c0.9,0,1.7-0.2,2.5-0.7V462.7z"/>
			<path class="st3" d="M1011.6,464c0-2.4,1.8-4,4.1-4c2.4,0,4.1,1.7,4.1,4s-1.7,4.1-4.1,4.1C1013.4,468.1,1011.6,466.4,1011.6,464z
				 M1018.4,464c0-1.7-1.1-2.8-2.7-2.8c-1.5,0-2.7,1.1-2.7,2.8c0,1.7,1.2,2.8,2.7,2.8C1017.3,466.8,1018.4,465.7,1018.4,464z"/>
			<path class="st3" d="M1021.1,464c0-2.4,1.8-4,4.1-4c2.4,0,4.1,1.7,4.1,4s-1.7,4.1-4.1,4.1C1022.9,468.1,1021.1,466.4,1021.1,464z
				 M1027.9,464c0-1.7-1.1-2.8-2.7-2.8c-1.5,0-2.7,1.1-2.7,2.8c0,1.7,1.2,2.8,2.7,2.8C1026.8,466.8,1027.9,465.7,1027.9,464z"/>
			<path class="st3" d="M1039,460.1v6.9c0,2.8-1.4,4.1-4.1,4.1c-1.5,0-2.9-0.4-3.8-1.2l0.7-1.1c0.7,0.6,1.9,1,3.1,1
				c1.9,0,2.7-0.9,2.7-2.7v-0.6c-0.7,0.8-1.7,1.2-2.9,1.2c-2.3,0-4-1.6-4-3.9s1.7-3.8,4-3.8c1.2,0,2.3,0.4,2.9,1.3v-1.2H1039z
				 M1037.6,463.8c0-1.5-1.1-2.6-2.7-2.6c-1.6,0-2.7,1-2.7,2.6c0,1.5,1.1,2.6,2.7,2.6C1036.4,466.4,1037.6,465.3,1037.6,463.8z"/>
			<path class="st3" d="M1041.7,456.9h1.4V468h-1.4V456.9z"/>
			<path class="st3" d="M1053.1,464.5h-6.4c0.2,1.4,1.3,2.3,2.9,2.3c0.9,0,1.7-0.3,2.3-1l0.8,0.9c-0.7,0.8-1.8,1.3-3.1,1.3
				c-2.6,0-4.3-1.7-4.3-4.1c0-2.4,1.7-4,4-4s3.9,1.6,3.9,4.1C1053.1,464.2,1053.1,464.4,1053.1,464.5z M1046.6,463.5h5.1
				c-0.2-1.3-1.2-2.3-2.5-2.3C1047.8,461.2,1046.8,462.1,1046.6,463.5z"/>
		</g>
		<g id="Group_110" transform="translate(1034.289 377)">
			<path id="Path_78" class="st4" d="M-174.5,85.7c0-1.1,0.3-2.2,0.9-3.2v-3.9h-3.9c-1.6,2-2.4,4.5-2.4,7.1c0,2.6,0.8,5.1,2.4,7.1
				h3.9v-3.9C-174.2,87.9-174.5,86.8-174.5,85.7z"/>
			<path id="Path_79" class="st5" d="M-168.3,91.9l-2.7,2.7l2.7,2.7c2.6,0,5.1-0.8,7.1-2.4v-3.9h-3.9
				C-166.1,91.6-167.2,91.9-168.3,91.9z"/>
			<path id="Path_80" class="st6" d="M-173.6,88.9l-3.9,3.9c0.3,0.4,0.7,0.8,1,1.2c2.2,2.2,5.2,3.4,8.3,3.4v-5.5
				C-170.5,91.9-172.5,90.8-173.6,88.9L-173.6,88.9z"/>
			<path id="Path_81" class="st7" d="M-156.6,85.7c0-0.7-0.1-1.4-0.2-2.1l-0.1-0.6h-11.4v5.5h5.6c-0.5,1.1-1.4,1.9-2.4,2.5l3.9,3.9
				c0.4-0.3,0.8-0.7,1.2-1C-157.8,91.8-156.6,88.8-156.6,85.7z"/>
			<path id="Path_82" class="st8" d="M-163.9,81.3l0.5,0.5l3.9-3.9l-0.5-0.5c-2.2-2.2-5.2-3.4-8.3-3.4l-2.7,2.7l2.7,2.7
				C-166.6,79.5-165.1,80.1-163.9,81.3z"/>
			<path id="Path_83" class="st9" d="M-168.3,79.5V74c-3.1,0-6.1,1.2-8.3,3.4c-0.4,0.4-0.7,0.7-1,1.2l3.9,3.9
				C-172.5,80.6-170.5,79.5-168.3,79.5z"/>
		</g>
	</g>
</g>
</svg>
