<?xml version="1.0" encoding="utf-8"?>
<!-- Generator: Adobe Illustrator 24.2.0, SVG Export Plug-In . SVG Version: 6.00 Build 0)  -->
<svg version="1.1" id="Layer_1" xmlns="http://www.w3.org/2000/svg" xmlns:xlink="http://www.w3.org/1999/xlink" x="0px" y="0px"
	 width="178px" height="69px" viewBox="0 0 178 69" style="enable-background:new 0 0 178 69;" xml:space="preserve">
<style type="text/css">
	.st0{fill:#FFFFFF;}
	.st1{fill:none;stroke:#D6D6D6;}
	.st2{enable-background:new    ;}
	.st3{fill:#272A49;}
</style>
<g id="Group_151" transform="translate(-3635 -1016)">
	<g id="Rectangle_109" transform="translate(3635 1016)">
		<path class="st0" d="M6,2.5h166c3.3,0,6,2.7,6,6V61c0,3.3-2.7,6-6,6H6c-3.3,0-6-2.7-6-6V8.5C0,5.2,2.7,2.5,6,2.5z"/>
		<path class="st1" d="M6,3h166c3,0,5.5,2.5,5.5,5.5V61c0,3-2.5,5.5-5.5,5.5H6c-3,0-5.5-2.5-5.5-5.5V8.5C0.5,5.5,3,3,6,3z"/>
	</g>
	<g class="st2">
		<path class="st3" d="M3676.3,1045.4v13.6h-3v-13.6H3676.3z"/>
		<path class="st3" d="M3685.6,1057.7c-0.3,0.5-0.7,0.9-1.2,1.1c-0.5,0.2-1.1,0.4-1.7,0.4c-0.7,0-1.4-0.1-1.9-0.4
			c-0.6-0.3-1-0.7-1.4-1.2c-0.4-0.5-0.6-1-0.8-1.7c-0.2-0.6-0.3-1.3-0.3-2c0-0.7,0.1-1.3,0.3-1.9s0.5-1.2,0.8-1.6
			c0.4-0.5,0.8-0.8,1.4-1.1c0.5-0.3,1.2-0.4,1.9-0.4c0.6,0,1.1,0.1,1.7,0.4c0.5,0.2,0.9,0.6,1.2,1.1h0v-4.9h2.7v13.6h-2.6
			L3685.6,1057.7L3685.6,1057.7z M3685.5,1052.9c-0.1-0.4-0.2-0.7-0.4-1c-0.2-0.3-0.4-0.5-0.7-0.7c-0.3-0.2-0.7-0.3-1.1-0.3
			c-0.4,0-0.8,0.1-1.1,0.3c-0.3,0.2-0.5,0.4-0.7,0.7c-0.2,0.3-0.3,0.6-0.4,1c-0.1,0.4-0.1,0.8-0.1,1.2c0,0.4,0,0.8,0.1,1.1
			c0.1,0.4,0.2,0.7,0.4,1c0.2,0.3,0.4,0.5,0.7,0.7c0.3,0.2,0.7,0.3,1.1,0.3c0.4,0,0.8-0.1,1.1-0.3c0.3-0.2,0.5-0.4,0.7-0.7
			s0.3-0.6,0.4-1c0.1-0.4,0.1-0.8,0.1-1.2C3685.6,1053.7,3685.6,1053.3,3685.5,1052.9z"/>
		<path class="st3" d="M3693.1,1056.6c0.4,0.4,1,0.6,1.7,0.6c0.5,0,1-0.1,1.4-0.4c0.4-0.3,0.6-0.6,0.7-0.9h2.4c-0.4,1.2-1,2-1.7,2.5
			c-0.8,0.5-1.7,0.8-2.9,0.8c-0.8,0-1.5-0.1-2.1-0.4c-0.6-0.2-1.1-0.6-1.6-1.1s-0.8-1-1-1.6c-0.2-0.6-0.4-1.3-0.4-2.1
			c0-0.7,0.1-1.4,0.4-2.1c0.2-0.6,0.6-1.2,1-1.6c0.4-0.5,1-0.8,1.6-1.1c0.6-0.3,1.3-0.4,2-0.4c0.8,0,1.6,0.2,2.2,0.5
			s1.1,0.8,1.5,1.3c0.4,0.5,0.7,1.2,0.9,1.9c0.2,0.7,0.2,1.4,0.2,2.2h-7.1C3692.5,1055.6,3692.7,1056.3,3693.1,1056.6z
			 M3696.2,1051.5c-0.3-0.4-0.8-0.5-1.5-0.5c-0.4,0-0.8,0.1-1.1,0.2c-0.3,0.1-0.5,0.3-0.7,0.5s-0.3,0.4-0.4,0.7
			c-0.1,0.2-0.1,0.5-0.1,0.6h4.4C3696.7,1052.3,3696.5,1051.8,3696.2,1051.5z"/>
		<path class="st3" d="M3701,1052.2c0-0.6,0.2-1.2,0.5-1.6c0.3-0.4,0.6-0.8,1.1-1c0.4-0.3,0.9-0.4,1.5-0.5c0.5-0.1,1.1-0.2,1.6-0.2
			c0.5,0,1,0,1.5,0.1c0.5,0.1,1,0.2,1.4,0.4c0.4,0.2,0.8,0.5,1,0.8s0.4,0.8,0.4,1.4v5.1c0,0.4,0,0.9,0.1,1.3
			c0.1,0.4,0.1,0.7,0.3,0.9h-2.7c-0.1-0.2-0.1-0.3-0.1-0.5c0-0.2-0.1-0.3-0.1-0.5c-0.4,0.4-0.9,0.8-1.5,0.9
			c-0.6,0.2-1.2,0.3-1.8,0.3c-0.5,0-0.9-0.1-1.3-0.2c-0.4-0.1-0.8-0.3-1.1-0.5c-0.3-0.2-0.5-0.5-0.7-0.9c-0.2-0.4-0.3-0.8-0.3-1.3
			c0-0.6,0.1-1,0.3-1.4s0.4-0.6,0.8-0.9c0.3-0.2,0.7-0.4,1.1-0.5s0.8-0.2,1.2-0.3c0.4-0.1,0.8-0.1,1.2-0.2c0.4,0,0.7-0.1,1-0.2
			c0.3-0.1,0.5-0.2,0.7-0.3c0.2-0.1,0.3-0.4,0.2-0.6c0-0.3,0-0.5-0.1-0.7c-0.1-0.2-0.2-0.3-0.4-0.4c-0.2-0.1-0.3-0.2-0.6-0.2
			s-0.4,0-0.7,0c-0.5,0-1,0.1-1.3,0.3c-0.3,0.2-0.5,0.6-0.5,1.1H3701z M3707.3,1054.2c-0.1,0.1-0.3,0.2-0.4,0.2
			c-0.2,0.1-0.4,0.1-0.6,0.1c-0.2,0-0.4,0.1-0.6,0.1s-0.4,0.1-0.6,0.1c-0.2,0-0.4,0.1-0.6,0.2c-0.2,0.1-0.4,0.1-0.5,0.3
			c-0.1,0.1-0.3,0.2-0.4,0.4c-0.1,0.2-0.1,0.4-0.1,0.6c0,0.2,0,0.4,0.1,0.6c0.1,0.2,0.2,0.3,0.4,0.4c0.2,0.1,0.3,0.2,0.5,0.2
			s0.4,0.1,0.6,0.1c0.5,0,0.9-0.1,1.2-0.3c0.3-0.2,0.5-0.4,0.6-0.6s0.2-0.5,0.3-0.8c0-0.3,0-0.5,0-0.6V1054.2z"/>
		<path class="st3" d="M3723.7,1045.4c0.8,0,1.6,0.1,2.2,0.4c0.6,0.2,1.1,0.6,1.5,1s0.6,0.9,0.8,1.4c0.2,0.5,0.3,1.1,0.3,1.6
			c0,0.5-0.1,1.1-0.3,1.6c-0.2,0.5-0.4,1-0.8,1.4s-0.9,0.7-1.5,1c-0.6,0.2-1.3,0.4-2.2,0.4h-3.1v4.9h-3v-13.6H3723.7z
			 M3722.9,1051.8c0.3,0,0.7,0,1-0.1c0.3-0.1,0.6-0.1,0.8-0.3c0.2-0.1,0.4-0.4,0.6-0.6c0.1-0.3,0.2-0.6,0.2-1s-0.1-0.8-0.2-1
			c-0.1-0.3-0.3-0.5-0.6-0.6c-0.2-0.1-0.5-0.2-0.8-0.3c-0.3-0.1-0.6-0.1-1-0.1h-2.3v4.1H3722.9z"/>
		<path class="st3" d="M3732.6,1049.2v1.8h0c0.1-0.3,0.3-0.6,0.5-0.8c0.2-0.3,0.5-0.5,0.7-0.7s0.6-0.3,0.9-0.4
			c0.3-0.1,0.6-0.2,1-0.2c0.2,0,0.4,0,0.6,0.1v2.5c-0.1,0-0.3,0-0.5-0.1c-0.2,0-0.3,0-0.5,0c-0.5,0-0.9,0.1-1.3,0.2
			c-0.3,0.2-0.6,0.4-0.8,0.7s-0.4,0.6-0.4,1c-0.1,0.4-0.1,0.8-0.1,1.2v4.4h-2.7v-9.8H3732.6z"/>
		<path class="st3" d="M3737.5,1052c0.2-0.6,0.6-1.2,1-1.6c0.4-0.4,1-0.8,1.6-1s1.3-0.4,2.1-0.4s1.5,0.1,2.1,0.4s1.2,0.6,1.6,1
			c0.4,0.5,0.8,1,1,1.6c0.2,0.6,0.4,1.4,0.4,2.1c0,0.8-0.1,1.5-0.4,2.1c-0.2,0.6-0.6,1.2-1,1.6s-1,0.8-1.6,1
			c-0.6,0.2-1.3,0.4-2.1,0.4s-1.5-0.1-2.1-0.4c-0.6-0.2-1.2-0.6-1.6-1s-0.8-1-1-1.6c-0.2-0.6-0.4-1.3-0.4-2.1
			C3737.1,1053.3,3737.2,1052.6,3737.5,1052z M3739.9,1055.2c0.1,0.4,0.2,0.7,0.4,1s0.4,0.5,0.7,0.7c0.3,0.2,0.7,0.3,1.1,0.3
			s0.8-0.1,1.1-0.3c0.3-0.2,0.6-0.4,0.7-0.7s0.3-0.6,0.4-1c0.1-0.4,0.1-0.8,0.1-1.1c0-0.4,0-0.8-0.1-1.2c-0.1-0.4-0.2-0.7-0.4-1
			c-0.2-0.3-0.4-0.5-0.7-0.7s-0.7-0.3-1.1-0.3s-0.8,0.1-1.1,0.3c-0.3,0.2-0.5,0.4-0.7,0.7c-0.2,0.3-0.3,0.6-0.4,1
			c-0.1,0.4-0.1,0.8-0.1,1.2C3739.8,1054.5,3739.8,1054.9,3739.9,1055.2z M3742.8,1044.1l-2,3.4h1.9l3.1-3.4H3742.8z"/>
		<path class="st3" d="M3751.6,1049.2v1.3h0c0.3-0.5,0.7-0.9,1.3-1.2c0.5-0.2,1.1-0.4,1.7-0.4c0.8,0,1.4,0.1,2,0.4
			c0.6,0.3,1,0.7,1.4,1.2c0.4,0.5,0.6,1,0.8,1.7c0.2,0.6,0.3,1.3,0.3,2c0,0.7-0.1,1.3-0.3,1.9c-0.2,0.6-0.4,1.1-0.8,1.6
			c-0.4,0.5-0.8,0.8-1.3,1.1c-0.5,0.3-1.2,0.4-1.9,0.4c-0.6,0-1.2-0.1-1.7-0.4c-0.5-0.2-0.9-0.6-1.3-1.1h0v4.7h-2.7v-13.3H3751.6z
			 M3755.1,1057c0.3-0.2,0.5-0.4,0.7-0.7s0.3-0.6,0.4-1s0.1-0.8,0.1-1.2s0-0.8-0.1-1.2c-0.1-0.4-0.2-0.7-0.4-1
			c-0.2-0.3-0.4-0.5-0.7-0.7c-0.3-0.2-0.7-0.3-1.1-0.3c-0.4,0-0.8,0.1-1.1,0.3c-0.3,0.2-0.5,0.4-0.7,0.7c-0.2,0.3-0.3,0.6-0.4,1
			c-0.1,0.4-0.1,0.8-0.1,1.2c0,0.4,0,0.8,0.1,1.2s0.2,0.7,0.4,1s0.4,0.5,0.7,0.7c0.3,0.2,0.7,0.3,1.1,0.3
			C3754.4,1057.2,3754.8,1057.1,3755.1,1057z"/>
		<path class="st3" d="M3760.7,1047.7v-2.2h2.7v2.2H3760.7z M3763.4,1049.2v9.8h-2.7v-9.8H3763.4z"/>
		<path class="st3" d="M3765.4,1052.2c0-0.6,0.2-1.2,0.5-1.6s0.6-0.8,1.1-1c0.4-0.3,0.9-0.4,1.5-0.5c0.5-0.1,1.1-0.2,1.6-0.2
			c0.5,0,1,0,1.5,0.1s1,0.2,1.4,0.4c0.4,0.2,0.8,0.5,1,0.8s0.4,0.8,0.4,1.4v5.1c0,0.4,0,0.9,0.1,1.3s0.1,0.7,0.3,0.9h-2.7
			c-0.1-0.2-0.1-0.3-0.1-0.5c0-0.2-0.1-0.3-0.1-0.5c-0.4,0.4-0.9,0.8-1.5,0.9c-0.6,0.2-1.2,0.3-1.8,0.3c-0.5,0-0.9-0.1-1.3-0.2
			s-0.8-0.3-1.1-0.5c-0.3-0.2-0.5-0.5-0.7-0.9c-0.2-0.4-0.3-0.8-0.3-1.3c0-0.6,0.1-1,0.3-1.4c0.2-0.4,0.5-0.6,0.8-0.9
			c0.3-0.2,0.7-0.4,1.1-0.5c0.4-0.1,0.8-0.2,1.2-0.3c0.4-0.1,0.8-0.1,1.2-0.2c0.4,0,0.7-0.1,1-0.2c0.3-0.1,0.5-0.2,0.7-0.3
			c0.2-0.1,0.3-0.4,0.2-0.6c0-0.3,0-0.5-0.1-0.7c-0.1-0.2-0.2-0.3-0.4-0.4c-0.2-0.1-0.3-0.2-0.6-0.2s-0.4,0-0.7,0
			c-0.5,0-1,0.1-1.3,0.3c-0.3,0.2-0.5,0.6-0.5,1.1H3765.4z M3771.6,1054.2c-0.1,0.1-0.3,0.2-0.4,0.2c-0.2,0.1-0.4,0.1-0.6,0.1
			c-0.2,0-0.4,0.1-0.6,0.1c-0.2,0-0.4,0.1-0.6,0.1c-0.2,0-0.4,0.1-0.6,0.2c-0.2,0.1-0.4,0.1-0.5,0.3c-0.1,0.1-0.3,0.2-0.4,0.4
			c-0.1,0.2-0.1,0.4-0.1,0.6c0,0.2,0,0.4,0.1,0.6c0.1,0.2,0.2,0.3,0.4,0.4c0.2,0.1,0.3,0.2,0.5,0.2c0.2,0,0.4,0.1,0.6,0.1
			c0.5,0,0.9-0.1,1.2-0.3c0.3-0.2,0.5-0.4,0.6-0.6c0.1-0.2,0.2-0.5,0.3-0.8c0-0.3,0-0.5,0-0.6V1054.2z"/>
	</g>
</g>
</svg>
