<?xml version="1.0" encoding="utf-8"?>
<!-- Generator: Adobe Illustrator 23.1.1, SVG Export Plug-In . SVG Version: 6.00 Build 0)  -->
<svg version="1.1" id="Layer_1" xmlns="http://www.w3.org/2000/svg" xmlns:xlink="http://www.w3.org/1999/xlink" x="0px" y="0px"
	 width="99.9px" height="35.7px" viewBox="0 0 99.9 35.7" style="enable-background:new 0 0 99.9 35.7;" xml:space="preserve">
<style type="text/css">
	.st0{fill:#1F8AE6;}
	.st1{fill:#FFFFFF;}
</style>
<g id="Group_106" transform="translate(0.287)">
	<g>
		<path id="Rectangle_23_1_" class="st0" d="M14.8,4.2h69.6C92,4.2,98,10.3,98,17.8l0,0c0,7.6-6.1,13.6-13.6,13.6H14.8
			c-7.6,0-13.6-6.1-13.6-13.6l0,0C1.1,10.4,7.3,4.2,14.8,4.2z"/>
	</g>
</g>
<g>
	<path class="st1" d="M21.3,11.8h2.2v9.4h-2.2V11.8z"/>
	<path class="st1" d="M33,17.1v4.2h-2.1v-3.8c0-1.2-0.5-1.7-1.5-1.7c-1,0-1.7,0.6-1.7,2v3.6h-2.1V14h2v0.8c0.6-0.6,1.4-1,2.4-1
		C31.7,13.8,33,14.8,33,17.1z"/>
	<path class="st1" d="M42.5,14v6c0,2.7-1.5,3.9-4.1,3.9c-1.4,0-2.7-0.3-3.6-1l0.8-1.5c0.6,0.5,1.6,0.8,2.6,0.8c1.5,0,2.1-0.7,2.1-2
		V20c-0.6,0.6-1.3,0.9-2.3,0.9c-2,0-3.6-1.4-3.6-3.5c0-2.1,1.6-3.5,3.6-3.5c1,0,1.8,0.3,2.4,1V14H42.5z M40.4,17.4
		c0-1.1-0.8-1.8-1.9-1.8c-1.1,0-1.9,0.7-1.9,1.8c0,1.1,0.8,1.8,1.9,1.8C39.6,19.1,40.4,18.4,40.4,17.4z"/>
	<path class="st1" d="M48.9,13.8v1.9c-0.2,0-0.3,0-0.5,0c-1.2,0-1.9,0.6-1.9,2v3.4h-2.1V14h2v1C46.9,14.2,47.8,13.8,48.9,13.8z"/>
	<path class="st1" d="M57.2,18.2h-5.5c0.2,0.9,1,1.5,2.1,1.5c0.8,0,1.3-0.2,1.8-0.7l1.1,1.2c-0.7,0.8-1.7,1.2-3,1.2
		c-2.5,0-4.1-1.6-4.1-3.7c0-2.2,1.7-3.7,3.9-3.7c2.1,0,3.8,1.4,3.8,3.8C57.2,17.8,57.2,18,57.2,18.2z M51.7,16.9h3.6
		c-0.1-0.9-0.8-1.5-1.8-1.5C52.5,15.4,51.8,16,51.7,16.9z"/>
	<path class="st1" d="M57.9,20.5l0.7-1.5c0.6,0.4,1.6,0.7,2.5,0.7c1,0,1.3-0.3,1.3-0.7c0-1.2-4.4,0-4.4-2.9c0-1.4,1.2-2.3,3.4-2.3
		c1,0,2.1,0.2,2.8,0.6L63.5,16c-0.7-0.4-1.4-0.5-2.1-0.5c-0.9,0-1.3,0.3-1.3,0.7c0,1.2,4.4,0,4.4,2.9c0,1.3-1.3,2.3-3.4,2.3
		C59.8,21.3,58.6,21,57.9,20.5z"/>
	<path class="st1" d="M72.2,17.1v4.1h-2v-0.9c-0.4,0.7-1.1,1-2.2,1c-1.7,0-2.7-0.9-2.7-2.2c0-1.3,0.9-2.2,3.1-2.2h1.7
		c0-0.9-0.5-1.4-1.7-1.4c-0.8,0-1.6,0.3-2.1,0.7l-0.8-1.5c0.8-0.6,2-0.9,3.1-0.9C70.9,13.8,72.2,14.9,72.2,17.1z M70.1,18.9v-0.7
		h-1.4c-1,0-1.3,0.4-1.3,0.8c0,0.5,0.4,0.9,1.2,0.9C69.2,19.9,69.8,19.6,70.1,18.9z"/>
	<path class="st1" d="M78.6,13.8v1.9c-0.2,0-0.3,0-0.5,0c-1.2,0-1.9,0.6-1.9,2v3.4h-2.1V14h2v1C76.6,14.2,77.5,13.8,78.6,13.8z"/>
</g>
</svg>
