<svg id="Group_11" data-name="Group 11" xmlns="http://www.w3.org/2000/svg" width="60.93" height="60.93" viewBox="0 0 60.93 60.93">
  <g id="Group_10" data-name="Group 10">
    <g id="Group_9" data-name="Group 9">
      <g id="Group_8" data-name="Group 8">
        <path id="Path_2" data-name="Path 2" d="M43.552,21.2A6.187,6.187,0,0,0,49.7,15.052a4.669,4.669,0,0,0-1.172-3.515A6.524,6.524,0,0,0,43.552,8.9a5.755,5.755,0,0,0-4.98,2.636A7.177,7.177,0,0,0,37.4,15.052,6.385,6.385,0,0,0,43.552,21.2Z" transform="translate(-13.087 15.413)" fill="#34365d"/>
        <path id="Path_3" data-name="Path 3" d="M47.959,12.359V6.5H42.1v5.859Z" transform="translate(-4.019 10.783)" fill="#34365d"/>
        <path id="Path_4" data-name="Path 4" d="M59.565.6A30.63,30.63,0,0,0,29.1,31.065,30.465,30.465,0,1,0,59.565.6ZM77.141,27.55V41.61A6.629,6.629,0,0,1,70.4,48.348H49.019a6.629,6.629,0,0,1-6.737-6.737V20.519a6.629,6.629,0,0,1,6.737-6.737H70.4a6.629,6.629,0,0,1,6.737,6.737Z" transform="translate(-29.1 -0.6)" fill="#34365d"/>
        <path id="Path_5" data-name="Path 5" d="M58.234,13.315a9.374,9.374,0,0,1-18.748,0A14.7,14.7,0,0,1,40.073,9.8H34.8V23.861a3.251,3.251,0,0,0,3.222,3.222H59.406a3.251,3.251,0,0,0,3.222-3.222V9.8H57.356A7.8,7.8,0,0,1,58.234,13.315Z" transform="translate(-18.103 17.15)" fill="#34365d"/>
      </g>
    </g>
  </g>
</svg>
