<?xml version="1.0" encoding="utf-8"?>
<!-- Generator: Adobe Illustrator 23.1.1, SVG Export Plug-In . SVG Version: 6.00 Build 0)  -->
<svg version="1.1" id="Layer_1" xmlns="http://www.w3.org/2000/svg" xmlns:xlink="http://www.w3.org/1999/xlink" x="0px" y="0px"
	 width="102px" height="32.3px" viewBox="0 0 102 32.3" style="enable-background:new 0 0 102 32.3;" xml:space="preserve">
<style type="text/css">
	.st0{fill:#597791;}
	.st1{fill:#FFFFFF;}
</style>
<rect y="-0.2" class="st0" width="102.1" height="32.4"/>
<g>
	<path class="st1" d="M22.5,12.1h1.5v7h4.4v1.3h-5.9V12.1z"/>
	<path class="st1" d="M29.7,12.1h1.5v8.3h-1.5V12.1z"/>
	<path class="st1" d="M40.8,18.2c0,1.4-1.1,2.3-3.3,2.3h-4.1v-8.3h3.9c2,0,3.1,0.8,3.1,2.2c0,0.9-0.4,1.5-1.1,1.8
		C40.2,16.4,40.8,17.1,40.8,18.2z M35,13.4v2.3h2.2c1.1,0,1.7-0.4,1.7-1.1c0-0.8-0.6-1.2-1.7-1.2H35z M39.3,18.1
		c0-0.8-0.6-1.2-1.8-1.2H35v2.4h2.5C38.7,19.3,39.3,18.9,39.3,18.1z"/>
	<path class="st1" d="M47.9,20.5L46.2,18c-0.1,0-0.2,0-0.3,0H44v2.4h-1.5v-8.3h3.4c2.2,0,3.5,1.1,3.5,3c0,1.3-0.6,2.2-1.8,2.6
		l1.9,2.7H47.9z M45.8,13.5H44v3.3h1.8c1.4,0,2.1-0.6,2.1-1.7C47.9,14.1,47.2,13.5,45.8,13.5z"/>
	<path class="st1" d="M57.4,19.2v1.3h-6.2v-8.3h6.1v1.3h-4.5v2.2h4v1.3h-4v2.3H57.4z"/>
	<path class="st1" d="M64.6,20.5L62.9,18c-0.1,0-0.2,0-0.3,0h-1.9v2.4h-1.5v-8.3h3.4c2.2,0,3.5,1.1,3.5,3c0,1.3-0.6,2.2-1.8,2.6
		l1.9,2.7H64.6z M62.5,13.5h-1.8v3.3h1.8c1.4,0,2.1-0.6,2.1-1.7C64.6,14.1,63.8,13.5,62.5,13.5z"/>
	<path class="st1" d="M69.2,9.8H71l-2.1,1.6h-1.3L69.2,9.8z M67.8,12.1h1.5v8.3h-1.5V12.1z"/>
	<path class="st1" d="M77,18.5h-4.2L72,20.5h-1.6l3.7-8.3h1.5l3.8,8.3h-1.6L77,18.5z M76.5,17.3l-1.6-3.6l-1.6,3.6H76.5z"/>
</g>
</svg>
