<?xml version="1.0" encoding="utf-8"?>
<!-- Generator: Adobe Illustrator 23.1.1, SVG Export Plug-In . SVG Version: 6.00 Build 0)  -->
<svg version="1.1" id="Layer_1" xmlns="http://www.w3.org/2000/svg" xmlns:xlink="http://www.w3.org/1999/xlink" x="0px" y="0px"
	 width="340px" height="30px" viewBox="0 0 340 30" style="enable-background:new 0 0 340 30;" xml:space="preserve">
<style type="text/css">
	.st0{fill:none;stroke:#D8D8D8;}
	.st1{enable-background:new    ;}
	.st2{fill:#1A1D3E;}
</style>
<g id="Group_117" transform="translate(-832.993 -397)">
	<line id="Line_2" class="st0" x1="833" y1="410.6" x2="983" y2="410.6"/>
	<line id="Line_9" class="st0" x1="1023" y1="410.6" x2="1173" y2="410.6"/>
	<g class="st1">
		<path class="st2" d="M998.2,411.3c0-2.5,1.9-4.3,4.6-4.3c2.6,0,4.6,1.8,4.6,4.3c0,2.5-2,4.3-4.6,4.3
			C1000.1,415.6,998.2,413.8,998.2,411.3z M1005.4,411.3c0-1.6-1.1-2.7-2.6-2.7s-2.6,1.1-2.6,2.7c0,1.6,1.1,2.7,2.6,2.7
			S1005.4,412.9,1005.4,411.3z"/>
	</g>
</g>
</svg>
