<?xml version="1.0" encoding="utf-8"?>
<!-- Generator: Adobe Illustrator 23.1.1, SVG Export Plug-In . SVG Version: 6.00 Build 0)  -->
<svg version="1.1" id="Layer_1" xmlns="http://www.w3.org/2000/svg" xmlns:xlink="http://www.w3.org/1999/xlink" x="0px" y="0px"
	 viewBox="0 0 762.5 543.4" style="enable-background:new 0 0 762.5 543.4;" xml:space="preserve">
<style type="text/css">
	.st0{fill:#1A1D3E;}
	.st1{fill-rule:evenodd;clip-rule:evenodd;fill:#1A1D3E;}
</style>
<title>logoCreatify</title>
<path class="st0" d="M102,347.9c0-32.9,25.2-56.2,59.5-56.2c20,0,36,7.3,46.5,20.4l-19.5,17.6c-6.8-8.2-15.1-12.7-25.5-12.7
	c-17.7,0-30.1,12.4-30.1,30.9s12.3,30.9,30.1,30.9c10.4,0,18.7-4.5,25.5-12.7l19.5,17.6c-10.5,13.1-26.5,20.4-46.5,20.4
	C127.2,404.2,102,380.9,102,347.9z"/>
<path class="st0" d="M274.1,314.8v26.4c-2.2-0.3-4.4-0.4-6.7-0.5c-11.9,0-20.1,6-20.1,20.7v38.5H218v-83.7h28v10.1
	C252.1,318.7,261.8,314.8,274.1,314.8z"/>
<path class="st0" d="M369.3,367.6h-60.9c2.5,8.5,9.7,13.4,20.6,13.4c8.2,0,13.6-2.3,19.3-7.3l15.5,16c-8.1,9-19.8,13.6-35.7,13.6
	c-29.7,0-49.1-18.3-49.1-43.4c0-25,19.7-43.1,46-43.1c24.7,0,44.8,15.7,44.8,43.4C369.7,362.4,369.4,365.2,369.3,367.6z M308,352.1
	h34.3c-1.5-8.8-8.1-14.3-17.1-14.3C316.1,337.8,309.7,343.3,308,352.1z"/>
<path class="st0" d="M460.2,355.5V402h-27.3v-10.9c-4.1,8.1-12.5,12.2-24.7,12.2c-20.1,0-31.2-11.3-31.2-25.8
	c0-15.4,11.3-25,37.2-25h16.6c-0.5-8.5-6.2-13.3-17.7-13.3c-8.1,0-17,2.8-22.7,7.3l-9.9-20c9.6-6.4,23.8-9.7,36.9-9.7
	C444.7,316.8,460.2,328.9,460.2,355.5z M430.9,375.1v-7.3h-12.6c-9.4,0-12.8,3.4-12.8,8.5c0,5,4,8.5,11,8.5
	C422.9,384.8,428.6,381.8,430.9,375.1z"/>
<path class="st0" d="M539,398.6c-5.1,3.2-12.7,4.8-20.4,4.8c-21.5,0-34-10.5-34-32v-28.1h-12.2v-22h12.2v-21.8H514v21.8h19.2v22H514
	v27.8c0,6.2,3.5,9.6,8.8,9.6c3.2,0,6.3-0.9,9-2.6L539,398.6z"/>
<path class="st0" d="M548.6,293.4c0-8.8,7.1-15.6,17.9-15.6c10.9,0,17.9,6.4,17.9,15.1c0,9.3-7.1,16-17.9,16
	C555.6,309,548.6,302.2,548.6,293.4z M551.8,318.3h29.3V402h-29.3V318.3z"/>
<path class="st0" d="M635.1,321.4h20v22h-19.2V402h-29.3v-58.7h-12.2v-21.9h12.2v-2.1c0-20.1,12.5-33.2,34.9-33.2
	c7.1,0,14.6,1.4,19.5,4.3l-7.3,20.7c-2.7-1.5-5.7-2.4-8.8-2.5c-6.2,0-9.7,3.5-9.7,11L635.1,321.4z"/>
<path class="st0" d="M761.8,321.3l-36.1,87c-8.8,21.6-21.2,27.9-37.7,27.9c-8.8,0-18.7-2.9-24.2-7.6l10.2-20.5
	c3.6,3.1,8.2,4.9,13,4.9c5.7,0,9-2.1,11.4-7.1l-35.9-84.7h30.1l20.6,51.1l20.7-51.1h27.9V321.3z"/>
<path class="st1" d="M21.4,284.6c11,6.5,19.6,11.9,19.6,11.9c-15.2,8.6-39.5,37.2-39.5,37.2c15.4-15.5,35-17.8,41.7-20.9
	c6.6-2.9,23.3-8.9,29-11.6c7.8-3.8,15.7-7.4,23.8-10.6l0.2-0.1l27.7,16.4l5.7,3.4l1.6-5.6l-4.4-3.2l-18.9-13.9l25,5.9l9.4,2.2
	l5.7-3.5l-10-3.5l-13-4.6c13.1-4.2,27.6-13.4,42.1-27.6c36.1-35.3,13.9-75.3,13.9-75.3s-2.3-13.6-6.2-23.7c-8-21.2-35.7-28.4-52.8-7
	c-3.1,0-6.3,0.8-9,2.3c0,0-0.3,1.4,7.6,6.2c0,0,7.7,4.5,13.6,5.2c-0.2,0-8.4,0-14.2-2c-0.7,4.4-1.8,12.6-0.8,18
	c0,0,12.7,10.8,37.4,3.2c0,0-9.9,12.9-44.2,5c-47.1,47.4-53.8,69.2-66.9,85.6c12.2-4.6,56.8-29,83.9-53.3
	C63.9,285.7,23.3,285.7,21.4,284.6z M150.8,163.3c-3.6,0-6.6-3.2-6.6-7.2c0-3.9,2.9-7.2,6.6-7.2s6.6,3.2,6.6,7.2
	S154.5,163.3,150.8,163.3z"/>
<path class="st1" d="M83.1,301.2c-6.7,1.8-20.8-0.1-23-0.8c-6.2-1.8-5.9,4.1-5.9,4.1c-3.4,3.4-14.1,15.8-27.4,24.7l34.3-2.4
	C61.1,326.8,68.3,317,83.1,301.2z M54.4,313c0.2-0.2,0.4-0.3,0.7-0.4L54.4,313z"/>
</svg>
