<svg id="Layer_1" data-name="Layer 1" xmlns="http://www.w3.org/2000/svg" width="557.97" height="569.67" viewBox="0 0 557.97 569.67"><defs><style>.cls-1,.cls-2{fill:#1a1d3e;}.cls-2{fill-rule:evenodd;}</style></defs><title>logoAbCreatify</title><path class="cls-1" d="M241.32,414.52c0-55.27,42.3-94.46,99.91-94.46,33.48,0,60.47,12.2,78.11,34.26L386.65,383.9c-11.42-13.75-25.44-21.28-42.82-21.28-29.85,0-50.61,20.76-50.61,51.9s20.76,51.91,50.61,51.91c17.38,0,31.4-7.53,42.82-21.28l32.69,29.58C401.7,496.79,374.71,509,341.23,509,283.62,509,241.32,469.8,241.32,414.52Z"/><path class="cls-2" d="M105.75,308.08C124.25,318.87,138.6,328,138.6,328c-25.43,14.65-66.31,62.55-66.31,62.55,26-26,58.77-30,70.14-35,11-4.86,39.16-14.82,48.81-19.53q19.63-9.6,39.92-17.86s.27-.14.31-.12l46.65,27.59,9.71,5.73,2.73-9.57-7.36-5.44L251.49,313,293.41,323l15.72,3.81,9.56-6-16.68-6L280.07,307c22-7.11,46.41-22.54,70.87-46.47C411.53,201.21,374.3,134,374.3,134S370.43,111.18,364,94.18C350.62,58.55,304,46.32,275.2,82.52a33.58,33.58,0,0,0-15.14,3.84s-.47,2.38,12.73,10.35c0,0,12.83,7.68,22.82,8.82-.35,0-14.11,0-23.86-3.35-1.24,7.47-3,21.13-1.42,30.3,0,0,21.3,18.13,62.9,5.37,0,0-16.67,21.72-74.21,8.43-79.16,79.63-90.57,116.17-112.54,143.92,20.54-7.73,95.37-48.8,141-89.6C177.31,309.86,108.9,309.92,105.75,308.08Zm217.6-203.8c-6.05,0-11-5.42-11-12s4.92-12.06,11-12.06,11,5.39,11,12.06S329.39,104.28,323.35,104.28Z"/><path class="cls-2" d="M209.44,336c-11.2,3-34.92-.27-38.61-1.32-10.37-3-9.9,6.93-9.9,6.93-5.78,5.78-23.69,26.66-46.05,41.43L172.42,379S184.54,362.65,209.44,336Zm-48.06,19.73a3.75,3.75,0,0,1,1.18-.64Z"/></svg>