<svg id="Group_119" data-name="Group 119" xmlns="http://www.w3.org/2000/svg" width="160.847" height="60.873" viewBox="0 0 160.847 60.873">
  <g id="Group_17" data-name="Group 17" transform="translate(0 0)">
    <g id="Group_15" data-name="Group 15" transform="translate(23.645 27.926)">
      <g id="Group_14" data-name="Group 14">
        <g id="Group_13" data-name="Group 13">
          <g id="Group_12" data-name="Group 12">
            <path id="Path_22" data-name="Path 22" d="M175.779,602.393c0-6.839,5.234-11.688,12.362-11.688a11.888,11.888,0,0,1,9.665,4.238l-4.046,3.661a6.644,6.644,0,0,0-5.3-2.633,6.424,6.424,0,0,0,0,12.844,6.645,6.645,0,0,0,5.3-2.633l4.046,3.661a11.889,11.889,0,0,1-9.665,4.239C181.013,614.082,175.779,609.232,175.779,602.393Z" transform="translate(-175.779 -587.815)" fill="#fff"/>
            <path id="Path_23" data-name="Path 23" d="M228.194,598.821v5.491a11.143,11.143,0,0,0-1.381-.1c-2.472,0-4.174,1.252-4.174,4.3v8h-6.1v-17.4h5.812V601.2A7.125,7.125,0,0,1,228.194,598.821Z" transform="translate(-192.402 -591.125)" fill="#fff"/>
            <path id="Path_24" data-name="Path 24" d="M256.687,610.076H244.035c.514,1.766,2.023,2.794,4.271,2.794a5.577,5.577,0,0,0,4.014-1.509l3.211,3.339c-1.669,1.863-4.11,2.826-7.417,2.826-6.2,0-10.211-3.822-10.211-9.023,0-5.234,4.078-8.959,9.569-8.959,5.138,0,9.312,3.276,9.312,9.023C256.783,609.016,256.719,609.594,256.687,610.076Zm-12.748-3.211h7.128a3.62,3.62,0,0,0-7.128,0Z" transform="translate(-201.115 -591.419)" fill="#fff"/>
            <path id="Path_25" data-name="Path 25" d="M289.665,607.571v9.665h-5.684v-2.247c-.867,1.67-2.6,2.537-5.138,2.537-4.174,0-6.487-2.344-6.487-5.363,0-3.211,2.344-5.2,7.739-5.2h3.468c-.1-1.766-1.284-2.762-3.693-2.762a8.109,8.109,0,0,0-4.721,1.51l-2.055-4.142a14.625,14.625,0,0,1,7.674-2.023C286.422,599.543,289.665,602.048,289.665,607.571Zm-6.1,4.078V610.14h-2.633c-1.959,0-2.665.706-2.665,1.766,0,1.027.835,1.766,2.28,1.766A3.006,3.006,0,0,0,283.564,611.649Z" transform="translate(-215.168 -591.419)" fill="#fff"/>
            <path id="Path_26" data-name="Path 26" d="M319.7,614.053a8.21,8.21,0,0,1-4.239,1c-4.464,0-7.064-2.184-7.064-6.648v-5.844h-2.537V598H308.4V593.47h6.1V598h3.982v4.56H314.5v5.78a1.768,1.768,0,0,0,1.83,1.991,3.337,3.337,0,0,0,1.862-.546Z" transform="translate(-228.832 -588.942)" fill="#fff"/>
            <path id="Path_27" data-name="Path 27" d="M332.581,589.067c0-1.83,1.477-3.243,3.725-3.243s3.725,1.317,3.725,3.147c0,1.927-1.477,3.34-3.725,3.34S332.581,590.9,332.581,589.067Zm.674,5.17h6.1v17.4h-6.1Z" transform="translate(-239.73 -585.824)" fill="#fff"/>
            <path id="Path_28" data-name="Path 28" d="M357.136,596.051h4.142v4.56H357.3v12.2h-6.1v-12.2h-2.537v-4.56H351.2V595.6c0-4.174,2.6-6.9,7.257-6.9a8.277,8.277,0,0,1,4.046.9l-1.509,4.3a3.9,3.9,0,0,0-1.83-.514c-1.285,0-2.023.738-2.023,2.28Z" transform="translate(-246.287 -586.996)" fill="#fff"/>
            <path id="Path_29" data-name="Path 29" d="M393.257,601.065l-7.514,18.11c-1.83,4.5-4.4,5.812-7.835,5.812a8.487,8.487,0,0,1-5.042-1.573l2.119-4.271a4.146,4.146,0,0,0,2.7,1.027,2.354,2.354,0,0,0,2.376-1.477l-7.45-17.629h6.262l4.271,10.629,4.3-10.629Z" transform="translate(-256.055 -592.04)" fill="#fff"/>
          </g>
        </g>
      </g>
    </g>
    <g id="Group_16" data-name="Group 16">
      <path id="Path_30" data-name="Path 30" d="M111.433,592.479c2.289,1.335,4.065,2.468,4.065,2.468-3.147,1.813-8.206,7.739-8.206,7.739,3.219-3.219,7.273-3.716,8.679-4.336,1.363-.6,4.846-1.833,6.039-2.417,1.62-.792,3.269-1.532,4.94-2.209,0,0,.034-.018.038-.016l5.772,3.414,1.2.709.869-.794-1.441-1.064-3.925-2.891,5.187,1.245,2.425.656.7-.928-2.064-.739L133,592.341a23.394,23.394,0,0,0,8.769-5.75,13.225,13.225,0,0,0,2.891-15.65,31.918,31.918,0,0,0-1.272-4.928c-1.659-4.409-7.431-5.922-10.99-1.443a4.158,4.158,0,0,0-1.874.475s-.057.295,1.575,1.28a8.936,8.936,0,0,0,2.825,1.091,10.884,10.884,0,0,1-2.952-.413,13.041,13.041,0,0,0-.176,3.748s2.636,2.244,7.783.664c0,0-2.064,2.688-9.183,1.043-9.8,9.853-11.208,14.376-13.926,17.809a77.745,77.745,0,0,0,17.454-11.088C120.288,592.7,111.823,592.707,111.433,592.479Zm26.924-25.218a1.5,1.5,0,1,1,1.357-1.492A1.433,1.433,0,0,1,138.357,567.262Z" transform="translate(-107.292 -561.867)" fill="#fff" fill-rule="evenodd"/>
      <path id="Path_31" data-name="Path 31" d="M127.891,619.245a14.209,14.209,0,0,1-4.776-.163c-1.284-.367-1.225.858-1.225.858a34.3,34.3,0,0,1-5.7,5.126l7.12-.507A68.7,68.7,0,0,1,127.891,619.245Zm-5.946,2.441a.494.494,0,0,1,.146-.079C122.06,621.625,122.012,621.651,121.946,621.686Z" transform="translate(-110.921 -585.174)" fill="#fff" fill-rule="evenodd"/>
    </g>
  </g>
</svg>
