<?xml version="1.0" encoding="utf-8"?>
<!-- Generator: Adobe Illustrator 24.2.0, SVG Export Plug-In . SVG Version: 6.00 Build 0)  -->
<svg version="1.1" id="Layer_1" xmlns="http://www.w3.org/2000/svg" xmlns:xlink="http://www.w3.org/1999/xlink" x="0px" y="0px"
	 viewBox="0 0 322 129.1" style="enable-background:new 0 0 322 129.1;" xml:space="preserve">
<style type="text/css">
	.st0{fill:#1F8AE6;}
	.st1{fill:#FFFFFF;}
</style>
<path class="st0" d="M297.4,115.6H24.6c-7.9,0-14.3-6.4-14.3-14.3V27.8c0-7.9,6.4-14.3,14.3-14.3h272.8c7.9,0,14.3,6.4,14.3,14.3
	v73.4C311.7,109.1,305.3,115.6,297.4,115.6z"/>
<g>
	<path class="st1" d="M83.6,80.1l0-19.5l-9.7,16.2h-2.4l-9.7-15.9v19.3h-5.2V50.6H61l11.7,19.5l11.5-19.5h4.5l0,29.4H83.6z"/>
	<path class="st1" d="M115,66.9v13.2h-5v-2.7c-1.3,1.9-3.7,3-7.1,3c-5.1,0-8.4-2.8-8.4-6.7c0-3.7,2.5-6.7,9.3-6.7h5.8v-0.3
		c0-3.1-1.9-4.9-5.6-4.9c-2.5,0-5.1,0.8-6.8,2.2l-2.1-3.8c2.4-1.9,5.9-2.8,9.5-2.8C111.2,57.3,115,60.4,115,66.9z M109.7,73v-2.6
		h-5.4c-3.6,0-4.5,1.3-4.5,3c0,1.9,1.6,3.1,4.3,3.1C106.6,76.5,108.8,75.3,109.7,73z M106.2,54.5h-4.5l5.7-5.8h6.2L106.2,54.5z"/>
	<path class="st1" d="M119.1,77.8l2-4c2,1.3,5,2.2,7.8,2.2c3.3,0,4.7-0.9,4.7-2.5c0-4.3-13.9-0.3-13.9-9.2c0-4.2,3.8-7,9.9-7
		c3,0,6.4,0.7,8.4,1.9l-2,4c-2.1-1.3-4.3-1.7-6.4-1.7c-3.2,0-4.7,1.1-4.7,2.5c0,4.5,13.9,0.5,13.9,9.3c0,4.2-3.9,6.9-10.2,6.9
		C124.9,80.3,121.2,79.3,119.1,77.8z"/>
	<path class="st1" d="M155.5,50.6h5.5v29.4h-5.5V50.6z"/>
	<path class="st1" d="M190.4,48.8v31.2h-5v-2.9c-1.8,2.1-4.4,3.2-7.4,3.2c-6.5,0-11.4-4.5-11.4-11.5s4.8-11.5,11.4-11.5
		c2.9,0,5.5,1,7.2,3V48.8H190.4z M185.2,68.8c0-4.3-2.9-7-6.7-7s-6.7,2.7-6.7,7s2.9,7,6.7,7S185.2,73.1,185.2,68.8z"/>
	<path class="st1" d="M218.3,70.5h-17.6c0.6,3.3,3.4,5.4,7.3,5.4c2.5,0,4.5-0.8,6.1-2.4l2.8,3.2c-2,2.4-5.2,3.7-9,3.7
		c-7.5,0-12.4-4.8-12.4-11.5c0-6.7,4.9-11.5,11.6-11.5c6.6,0,11.4,4.6,11.4,11.6C218.4,69.4,218.4,70,218.3,70.5z M200.7,67h12.7
		c-0.4-3.2-2.9-5.5-6.4-5.5C203.7,61.5,201.2,63.7,200.7,67z"/>
	<path class="st1" d="M241.6,66.9v13.2h-5v-2.7c-1.3,1.9-3.7,3-7.1,3c-5.1,0-8.4-2.8-8.4-6.7c0-3.7,2.5-6.7,9.3-6.7h5.8v-0.3
		c0-3.1-1.9-4.9-5.6-4.9c-2.5,0-5.1,0.8-6.8,2.2l-2.1-3.8c2.4-1.9,5.9-2.8,9.5-2.8C237.9,57.3,241.6,60.4,241.6,66.9z M236.4,73
		v-2.6H231c-3.6,0-4.5,1.3-4.5,3c0,1.9,1.6,3.1,4.3,3.1C233.3,76.5,235.5,75.3,236.4,73z"/>
	<path class="st1" d="M245.8,77.8l2-4c2,1.3,5,2.2,7.8,2.2c3.3,0,4.7-0.9,4.7-2.5c0-4.3-13.9-0.3-13.9-9.2c0-4.2,3.8-7,9.9-7
		c3,0,6.4,0.7,8.4,1.9l-2,4c-2.1-1.3-4.3-1.7-6.4-1.7c-3.2,0-4.7,1.1-4.7,2.5c0,4.5,13.9,0.5,13.9,9.3c0,4.2-3.9,6.9-10.2,6.9
		C251.6,80.3,247.8,79.3,245.8,77.8z"/>
</g>
</svg>
