<?xml version="1.0" encoding="utf-8"?>
<!-- Generator: Adobe Illustrator 23.1.1, SVG Export Plug-In . SVG Version: 6.00 Build 0)  -->
<svg version="1.1" id="Layer_1" xmlns="http://www.w3.org/2000/svg" xmlns:xlink="http://www.w3.org/1999/xlink" x="0px" y="0px"
	 width="102px" height="32.3px" viewBox="0 0 102 32.3" style="enable-background:new 0 0 102 32.3;" xml:space="preserve">
<style type="text/css">
	.st0{fill:#F25050;}
	.st1{fill:#FFFFFF;}
</style>
<rect x="0" y="-0.2" class="st0" width="102.1" height="32.4"/>
<g>
	<path class="st1" d="M37.6,6.7v7.9h-1.2L32,9.2v5.4h-1.5V6.7h1.2l4.4,5.4V6.7H37.6z"/>
	<path class="st1" d="M39.6,11.1V6.7h1.5v4.4c0,1.6,0.7,2.3,2,2.3c1.3,0,2-0.7,2-2.3V6.7h1.4v4.5c0,2.3-1.3,3.6-3.5,3.6
		C40.9,14.7,39.6,13.4,39.6,11.1z"/>
	<path class="st1" d="M54.6,13.3v1.2h-5.9V6.7h5.8v1.2h-4.3v2.1h3.8v1.2h-3.8v2.2H54.6z"/>
	<path class="st1" d="M63.3,6.7l-3.5,7.9h-1.4L55,6.7h1.6l2.6,6.1l2.7-6.1H63.3z"/>
	<path class="st1" d="M63.5,10.6c0-2.3,1.8-4.1,4.3-4.1c2.5,0,4.3,1.7,4.3,4.1s-1.8,4.1-4.3,4.1C65.3,14.7,63.5,13,63.5,10.6z
		 M70.6,10.6c0-1.6-1.2-2.8-2.8-2.8C66.2,7.8,65,9,65,10.6s1.2,2.8,2.8,2.8C69.4,13.4,70.6,12.2,70.6,10.6z"/>
	<path class="st1" d="M15.1,21.6c0-2.4,1.8-4.1,4.2-4.1c1.3,0,2.4,0.5,3.1,1.3l-1,0.9c-0.6-0.6-1.3-0.9-2.1-0.9
		c-1.6,0-2.8,1.2-2.8,2.8c0,1.6,1.2,2.8,2.8,2.8c0.8,0,1.5-0.3,2.1-0.9l1,0.9c-0.7,0.9-1.8,1.3-3.1,1.3C16.9,25.7,15.1,24,15.1,21.6
		z"/>
	<path class="st1" d="M23.2,21.6c0-2.3,1.8-4.1,4.3-4.1s4.3,1.7,4.3,4.1s-1.8,4.1-4.3,4.1S23.2,24,23.2,21.6z M30.2,21.6
		c0-1.6-1.2-2.8-2.8-2.8c-1.6,0-2.8,1.2-2.8,2.8c0,1.6,1.2,2.8,2.8,2.8C29,24.4,30.2,23.3,30.2,21.6z"/>
	<path class="st1" d="M40.3,17.7v7.9h-1.2l-4.4-5.4v5.4h-1.5v-7.9h1.2l4.4,5.4v-5.4H40.3z"/>
	<path class="st1" d="M44,18.9h-2.6v-1.2h6.7v1.2h-2.6v6.7H44V18.9z"/>
	<path class="st1" d="M55.2,24.4v1.2h-5.9v-7.9H55v1.2h-4.3V21h3.8v1.2h-3.8v2.2H55.2z"/>
	<path class="st1" d="M63.9,17.7v7.9h-1.2l-4.4-5.4v5.4h-1.5v-7.9H58l4.4,5.4v-5.4H63.9z"/>
	<path class="st1" d="M66,17.7h1.5v7.9H66V17.7z"/>
	<path class="st1" d="M69.6,17.7h3.5c2.6,0,4.3,1.6,4.3,4s-1.8,4-4.3,4h-3.5V17.7z M73,24.4c1.8,0,2.9-1.1,2.9-2.7s-1.1-2.7-2.9-2.7
		h-1.9v5.4H73z"/>
	<path class="st1" d="M78.4,21.6c0-2.3,1.8-4.1,4.3-4.1c2.5,0,4.3,1.7,4.3,4.1s-1.8,4.1-4.3,4.1C80.2,25.7,78.4,24,78.4,21.6z
		 M85.4,21.6c0-1.6-1.2-2.8-2.8-2.8c-1.6,0-2.8,1.2-2.8,2.8c0,1.6,1.2,2.8,2.8,2.8C84.2,24.4,85.4,23.3,85.4,21.6z"/>
</g>
</svg>
