<?xml version="1.0" encoding="iso-8859-1"?>
<!-- Generator: Adobe Illustrator 23.1.1, SVG Export Plug-In . SVG Version: 6.00 Build 0)  -->
<!DOCTYPE svg PUBLIC "-//W3C//DTD SVG 1.1//EN" "http://www.w3.org/Graphics/SVG/1.1/DTD/svg11.dtd" [
	<!ENTITY ns_extend "http://ns.adobe.com/Extensibility/1.0/">
	<!ENTITY ns_ai "http://ns.adobe.com/AdobeIllustrator/10.0/">
	<!ENTITY ns_graphs "http://ns.adobe.com/Graphs/1.0/">
	<!ENTITY ns_vars "http://ns.adobe.com/Variables/1.0/">
	<!ENTITY ns_imrep "http://ns.adobe.com/ImageReplacement/1.0/">
	<!ENTITY ns_sfw "http://ns.adobe.com/SaveForWeb/1.0/">
	<!ENTITY ns_custom "http://ns.adobe.com/GenericCustomNamespace/1.0/">
	<!ENTITY ns_adobe_xpath "http://ns.adobe.com/XPath/1.0/">
]>
<svg version="1.1" id="Capa_1" xmlns:x="&ns_extend;" xmlns:i="&ns_ai;" xmlns:graph="&ns_graphs;"
	 xmlns="http://www.w3.org/2000/svg" xmlns:xlink="http://www.w3.org/1999/xlink" x="0px" y="0px" width="512px" height="512px"
	 viewBox="-49 141 512 512" style="enable-background:new -49 141 512 512;" xml:space="preserve">
<metadata>
	<sfw  xmlns="&ns_sfw;">
		<slices></slices>
		<sliceSourceBounds  bottomLeftOrigin="true" height="307" width="512" x="-0.001" y="84"></sliceSourceBounds>
	</sfw>
</metadata>
<path style="fill:#ADADAD;" d="M459.177,386.995C454.606,381.897,344.681,262,207,262S-40.606,381.897-45.177,386.995
	c-5.098,5.698-5.098,14.312,0,20.01C-40.606,412.103,69.319,532,207,532s247.606-119.897,252.177-124.995
	C464.274,401.307,464.274,392.693,459.177,386.995z M312,397c0,57.891-47.109,105-105,105s-105-47.109-105-105s47.109-105,105-105
	S312,339.109,312,397z"/>
<path style="fill:#ADADAD;" d="M222,367c0-15.09,7.491-28.365,18.887-36.53C230.661,325.235,219.255,322,207,322
	c-41.353,0-75,33.647-75,75s33.647,75,75,75c37.024,0,67.668-27.034,73.722-62.358C250.516,419.367,222,396.522,222,367z"/>
<circle style="fill:#ADADAD;stroke:#FFFFFF;stroke-width:6;stroke-miterlimit:10;" cx="360" cy="500" r="66"/>
<polyline style="fill:#ADADAD;stroke:#FFFFFF;stroke-width:11;stroke-linecap:round;stroke-linejoin:round;stroke-miterlimit:10;" points="
	329,507 355,526 394,474 "/>
</svg>
