<?xml version="1.0" encoding="utf-8"?>
<!-- Generator: Adobe Illustrator 23.1.1, SVG Export Plug-In . SVG Version: 6.00 Build 0)  -->
<svg version="1.1" id="Layer_1" xmlns="http://www.w3.org/2000/svg" xmlns:xlink="http://www.w3.org/1999/xlink" x="0px" y="0px"
	 width="200px" height="56.5px" viewBox="0 0 200 56.5" style="enable-background:new 0 0 200 56.5;" xml:space="preserve">
<style type="text/css">
	.st0{fill:#1F8AE6;}
	.st1{enable-background:new    ;}
	.st2{fill:#FFFFFF;}
</style>
<g id="Group_106" transform="translate(0.287)">
	<g>
		<path id="Rectangle_23_1_" class="st0" d="M51.2,9.5h97.7c10.7,0,19.1,8.6,19.1,19.1l0,0c0,10.7-8.6,19.1-19.1,19.1H51.2
			c-10.7,0-19.1-8.6-19.1-19.1l0,0C32,18.1,40.6,9.5,51.2,9.5z"/>
		<g class="st1">
			<path class="st2" d="M52.4,31c0,0.5,0.1,0.9,0.2,1.2c0.1,0.4,0.4,0.6,0.6,0.7c0.2,0.2,0.6,0.4,0.9,0.5s0.7,0.1,1.2,0.1
				s0.9,0,1.2-0.1c0.4-0.1,0.6-0.2,0.7-0.4c0.2-0.1,0.4-0.4,0.5-0.6C58,32.3,58,32,58,31.9c0-0.5-0.1-0.7-0.4-0.9
				c-0.2-0.2-0.5-0.4-0.7-0.5c-0.4-0.1-0.9-0.2-1.5-0.5c-0.6-0.1-1.2-0.4-2-0.5c-0.5-0.1-0.9-0.4-1.2-0.5c-0.4-0.2-0.6-0.5-0.9-0.7
				C51,28,51,27.6,51,27.3c-0.1-0.2-0.1-0.6-0.1-0.9c0-0.6,0.1-1.1,0.4-1.6c0.2-0.5,0.6-0.9,0.9-1.1c0.4-0.2,0.9-0.5,1.3-0.6
				c0.5-0.1,1.1-0.2,1.6-0.2c0.6,0,1.2,0.1,1.7,0.2c0.6,0.1,0.9,0.4,1.5,0.7c0.4,0.4,0.7,0.7,0.9,1.2c0.2,0.5,0.4,0.9,0.4,1.6h-2
				c0-0.7-0.4-1.3-0.7-1.6c-0.5-0.4-1.1-0.5-1.8-0.5c-0.2,0-0.5,0-0.7,0.1c-0.2,0.1-0.5,0.1-0.7,0.2c-0.2,0.1-0.4,0.2-0.5,0.5
				c-0.1,0.2-0.2,0.5-0.2,0.7c0,0.4,0.1,0.7,0.4,0.9c0.2,0.2,0.6,0.4,0.9,0.5c0,0,0.2,0,0.5,0.1c0.2,0.1,0.6,0.1,0.9,0.2
				c0.4,0.1,0.7,0.2,1.1,0.2c0.4,0.1,0.6,0.1,0.7,0.2c0.4,0.1,0.7,0.2,0.9,0.5c0.2,0.2,0.5,0.5,0.7,0.7c0.2,0.2,0.4,0.6,0.5,0.9
				c0.1,0.3,0.1,0.6,0.1,0.9c0,0.6-0.1,1.2-0.4,1.7c-0.2,0.4-0.6,0.9-1.1,1.1c-0.5,0.2-0.9,0.5-1.5,0.6C56.3,35,55.7,35,55.1,35
				c-0.7,0-1.3-0.1-2-0.2c-0.6-0.1-1.1-0.4-1.6-0.7c-0.5-0.4-0.9-0.7-1.1-1.3c-0.2-0.6-0.4-1.2-0.4-2h2.3V31z"/>
			<path class="st2" d="M65.4,35.1c-0.7,0-1.3-0.1-1.8-0.4c-0.5-0.2-0.9-0.5-1.3-0.9c-0.4-0.4-0.6-0.9-0.9-1.5
				c-0.2-0.6-0.2-1.2-0.2-1.8s0.1-1.2,0.2-1.8c0.1-0.6,0.5-0.9,0.9-1.5c0.4-0.4,0.9-0.7,1.3-0.9c0.5-0.2,1.1-0.4,1.8-0.4
				s1.3,0.1,1.8,0.4c0.5,0.2,0.9,0.5,1.3,0.9c0.4,0.4,0.6,0.9,0.9,1.5c0.2,0.6,0.2,1.2,0.2,1.8s-0.1,1.2-0.2,1.8
				c-0.2,0.6-0.5,0.9-0.9,1.5c-0.4,0.4-0.9,0.7-1.3,0.9C66.8,35,66.1,35.1,65.4,35.1z M65.4,33.7c0.4,0,0.7-0.1,1.1-0.2
				c0.4-0.1,0.6-0.4,0.7-0.7c0.2-0.2,0.4-0.6,0.5-0.9c0.1-0.4,0.1-0.7,0.1-1.1c0-0.4,0-0.7-0.1-1.1c-0.1-0.4-0.2-0.7-0.5-0.9
				c-0.2-0.2-0.5-0.5-0.7-0.7c-0.4-0.1-0.7-0.2-1.1-0.2s-0.7,0.1-1.1,0.2c-0.4,0.1-0.6,0.4-0.7,0.7c-0.2,0.2-0.4,0.6-0.5,0.9
				c-0.1,0.4-0.1,0.7-0.1,1.1c0,0.4,0,0.7,0.1,1.1c0.1,0.4,0.2,0.7,0.5,0.9c0.2,0.2,0.5,0.5,0.7,0.7C64.6,33.7,65,33.7,65.4,33.7z"
				/>
			<path class="st2" d="M71.4,23.1h2v11.7h-2V23.1z"/>
			<path class="st2" d="M75.3,23.1h2v1.8h-2V23.1z M75.3,26.4h2V35h-2V26.4z"/>
			<path class="st2" d="M84.9,29.2c-0.1-0.5-0.2-0.9-0.6-1.2c-0.4-0.2-0.7-0.4-1.3-0.4c-0.2,0-0.5,0-0.7,0.1
				c-0.2,0.1-0.5,0.2-0.7,0.5c-0.2,0.2-0.5,0.5-0.6,0.9c-0.1,0.4-0.2,0.9-0.2,1.6c0,0.4,0,0.7,0.1,1.1c0.1,0.4,0.2,0.7,0.4,0.9
				c0.1,0.2,0.4,0.5,0.7,0.7c0.2,0.1,0.6,0.2,1.1,0.2c0.6,0,0.9-0.1,1.3-0.5c0.4-0.4,0.6-0.9,0.7-1.5h2c-0.1,1.1-0.6,2-1.2,2.5
				c-0.7,0.6-1.6,0.9-2.7,0.9c-0.7,0-1.2-0.1-1.8-0.4c-0.6-0.2-0.9-0.5-1.3-0.9c-0.4-0.4-0.6-0.9-0.9-1.5c-0.1-0.5-0.2-1.1-0.2-1.7
				s0.1-1.2,0.2-1.8c0.1-0.6,0.5-1.1,0.9-1.5c0.4-0.4,0.9-0.7,1.3-0.9c0.5-0.2,1.1-0.4,1.8-0.4c0.5,0,0.9,0.1,1.5,0.2
				c0.5,0.1,0.9,0.4,1.2,0.6c0.4,0.2,0.6,0.6,0.9,0.9c0.2,0.4,0.4,0.9,0.4,1.3h-2v-0.1H84.9z"/>
			<path class="st2" d="M88.3,23.1h2v1.8h-2V23.1z M88.3,26.4h2V35h-2V26.4z"/>
			<path class="st2" d="M91.5,26.4h1.5v-2.5h2v2.5h1.7v1.5h-1.7v4.4c0,0.2,0,0.4,0,0.5s0,0.2,0.1,0.4c0,0.1,0.1,0.1,0.2,0.2
				c0.1,0.1,0.2,0.1,0.4,0.1s0.2,0,0.4,0s0.2,0,0.4,0V35c-0.2,0-0.4,0-0.6,0.1c-0.2,0-0.4,0-0.6,0c-0.5,0-0.9,0-1.2-0.1
				s-0.5-0.2-0.7-0.4c-0.1-0.2-0.2-0.4-0.4-0.7c-0.1-0.2-0.1-0.6-0.1-0.9v-5.1h-1.5v-1.5H91.5z"/>
			<path class="st2" d="M104.8,32.9c0,0.2,0,0.4,0.1,0.5s0.1,0.1,0.4,0.1c0,0,0.1,0,0.2,0c0.1,0,0.1,0,0.2,0v1.3
				c-0.1,0-0.1,0-0.2,0.1c-0.1,0-0.2,0-0.4,0.1c-0.1,0-0.2,0-0.4,0s-0.2,0-0.2,0c-0.4,0-0.7-0.1-0.9-0.2s-0.4-0.5-0.5-0.9
				c-0.4,0.4-0.9,0.6-1.3,0.9c-0.5,0.2-1.1,0.2-1.6,0.2c-0.4,0-0.7,0-1.1-0.1s-0.6-0.2-0.9-0.5c-0.2-0.2-0.5-0.5-0.6-0.7
				c-0.1-0.4-0.2-0.7-0.2-1.1c0-0.5,0.1-0.9,0.2-1.3c0.2-0.4,0.5-0.6,0.7-0.7c0.4-0.2,0.7-0.4,1.1-0.4s0.7-0.1,1.2-0.2
				c0.4-0.1,0.7-0.1,0.9-0.1c0.4,0,0.6-0.1,0.9-0.1c0.2-0.1,0.5-0.1,0.6-0.4c0.1-0.1,0.2-0.4,0.2-0.6s0-0.5-0.1-0.6
				c-0.1-0.1-0.2-0.2-0.5-0.4c-0.2-0.1-0.4-0.1-0.6-0.1c-0.2,0-0.4,0-0.6,0c-0.5,0-0.9,0.1-1.3,0.4c-0.4,0.2-0.5,0.6-0.6,0.9h-2
				c0-0.6,0.1-0.9,0.4-1.3s0.5-0.6,0.9-0.9c0.4-0.2,0.7-0.4,1.2-0.5c0.5-0.1,0.9-0.1,1.3-0.1c0.4,0,0.9,0,1.2,0.1
				c0.4,0.1,0.7,0.2,1.1,0.5c0.4,0.2,0.6,0.5,0.7,0.7c0.2,0.4,0.2,0.7,0.2,1.1v4.2H104.8z M103,30.6c-0.2,0.2-0.6,0.2-1.1,0.4
				c-0.4,0-0.9,0.1-1.2,0.1c-0.2,0-0.4,0.1-0.6,0.1s-0.4,0.1-0.5,0.2c-0.1,0.1-0.2,0.2-0.4,0.4c-0.1,0.2-0.1,0.5-0.1,0.7
				c0,0.2,0,0.4,0.1,0.5c0.1,0.1,0.2,0.2,0.5,0.4c0.1,0.1,0.4,0.1,0.6,0.1c0.2,0,0.4,0,0.6,0s0.5,0,0.7-0.1c0.2,0,0.5-0.1,0.7-0.2
				c0.2-0.1,0.4-0.2,0.5-0.5c0.1-0.2,0.2-0.5,0.2-0.7L103,30.6L103,30.6z"/>
			<path class="st2" d="M106.9,26.4h1.8v1.7l0,0c0-0.2,0.1-0.5,0.4-0.7c0.1-0.2,0.4-0.4,0.6-0.6c0.2-0.1,0.5-0.4,0.7-0.5
				c0.2-0.1,0.6-0.1,0.9-0.1c0.2,0,0.4,0,0.5,0c0.1,0,0.1,0,0.2,0v1.8c-0.1,0-0.2,0-0.4,0c-0.1,0-0.2,0-0.4,0
				c-0.4,0-0.6,0.1-0.9,0.2c-0.2,0.1-0.5,0.4-0.7,0.6c-0.2,0.2-0.4,0.6-0.5,0.9c-0.4,0.1-0.4,0.6-0.4,1.1V35h-2L106.9,26.4
				L106.9,26.4z"/>
			<path class="st2" d="M117.5,23.1h5.2c0.9,0,1.6,0.1,2,0.4c0.5,0.2,0.9,0.6,1.2,0.9c0.2,0.4,0.5,0.7,0.6,1.2
				c0.1,0.5,0.1,0.9,0.1,1.2s0,0.7-0.1,1.2c-0.1,0.5-0.2,0.9-0.6,1.2c-0.4,0.4-0.7,0.6-1.2,0.9s-1.2,0.4-2,0.4h-3.1V35h-2V23.1z
				 M119.6,28.7h3c0.2,0,0.5,0,0.7-0.1c0.2-0.1,0.5-0.1,0.7-0.4c0.2-0.1,0.4-0.4,0.5-0.6s0.2-0.6,0.2-0.9c0-0.4,0-0.7-0.1-0.9
				c-0.1-0.2-0.2-0.5-0.5-0.6c-0.2-0.1-0.4-0.2-0.6-0.4c-0.2-0.1-0.5-0.1-0.7-0.1h-3v4.1C119.8,28.7,119.6,28.7,119.6,28.7z"/>
			<path class="st2" d="M132.1,35.1c-0.7,0-1.3-0.1-1.8-0.4c-0.5-0.2-0.9-0.5-1.3-0.9c-0.4-0.4-0.6-0.9-0.9-1.5
				c-0.2-0.6-0.2-1.2-0.2-1.8s0.1-1.2,0.2-1.8c0.1-0.6,0.5-0.9,0.9-1.5c0.4-0.4,0.9-0.7,1.3-0.9c0.5-0.2,1.1-0.4,1.8-0.4
				c0.7,0,1.3,0.1,1.8,0.4s0.9,0.5,1.3,0.9c0.4,0.4,0.6,0.9,0.9,1.5c0.3,0.6,0.2,1.2,0.2,1.8s-0.1,1.2-0.2,1.8
				c-0.1,0.6-0.5,0.9-0.9,1.5c-0.4,0.4-0.9,0.7-1.3,0.9C133.4,35,132.8,35.1,132.1,35.1z M132.1,33.7c0.4,0,0.7-0.1,1.1-0.2
				c0.4-0.1,0.6-0.4,0.7-0.7c0.2-0.2,0.4-0.6,0.5-0.9c0.1-0.4,0.1-0.7,0.1-1.1c0-0.4,0-0.7-0.1-1.1c-0.1-0.4-0.2-0.7-0.5-0.9
				c-0.2-0.2-0.5-0.5-0.7-0.7c-0.4-0.1-0.7-0.2-1.1-0.2c-0.4,0-0.7,0.1-1.1,0.2c-0.4,0.1-0.6,0.4-0.7,0.7c-0.2,0.2-0.4,0.6-0.5,0.9
				c-0.1,0.4-0.1,0.7-0.1,1.1c0,0.4,0,0.7,0.1,1.1c0.1,0.4,0.2,0.7,0.5,0.9c0.2,0.2,0.5,0.5,0.7,0.7
				C131.3,33.7,131.7,33.7,132.1,33.7z"/>
			<path class="st2" d="M139.4,32.2c0,0.6,0.2,0.9,0.6,1.2c0.4,0.2,0.9,0.4,1.3,0.4c0.1,0,0.4,0,0.6,0c0.2,0,0.5-0.1,0.6-0.1
				c0.2-0.1,0.4-0.2,0.5-0.4c0.1-0.1,0.2-0.4,0.1-0.6c0-0.2-0.1-0.5-0.2-0.6c-0.1-0.1-0.4-0.2-0.6-0.4c-0.2-0.1-0.6-0.1-0.9-0.2
				c-0.4-0.1-0.7-0.1-0.9-0.2c-0.4-0.1-0.7-0.1-0.9-0.2c-0.4-0.1-0.6-0.2-0.9-0.5c-0.2-0.2-0.5-0.5-0.6-0.7
				c-0.4-0.5-0.4-0.9-0.4-1.2c0-0.5,0.1-0.9,0.4-1.2s0.5-0.6,0.9-0.7c0.4-0.2,0.7-0.4,1.2-0.4c0.5-0.1,0.9-0.1,1.2-0.1
				c0.5,0,0.9,0,1.2,0.1c0.4,0.1,0.7,0.2,1.1,0.5c0.4,0.2,0.6,0.5,0.9,0.9c0.2,0.4,0.4,0.7,0.4,1.2h-2c-0.1-0.5-0.2-0.7-0.6-0.9
				c-0.4-0.2-0.7-0.2-1.1-0.2c-0.1,0-0.2,0-0.5,0c-0.1,0-0.4,0.1-0.5,0.1c-0.1,0.1-0.2,0.1-0.4,0.2c-0.1,0.1-0.1,0.2-0.1,0.5
				c0,0.2,0.1,0.4,0.2,0.6c0.1,0.1,0.4,0.2,0.6,0.4s0.6,0.1,0.9,0.2c0.4,0.1,0.7,0.1,0.9,0.2c0.4,0.1,0.7,0.1,0.9,0.2
				c0.4,0.1,0.6,0.2,0.9,0.5c0.2,0.2,0.5,0.4,0.6,0.7c0.1,0.2,0.2,0.6,0.2,1.1c0,0.5-0.1,0.9-0.4,1.3c-0.2,0.4-0.5,0.6-0.9,0.9
				c-0.4,0.2-0.7,0.4-1.2,0.5s-0.9,0.1-1.3,0.1c-0.5,0-1.1-0.1-1.5-0.2c-0.5-0.1-0.9-0.4-1.2-0.6c-0.4-0.2-0.6-0.6-0.9-0.9
				c-0.2-0.4-0.2-0.9-0.4-1.3h2L139.4,32.2L139.4,32.2z"/>
			<path class="st2" d="M145.7,26.4h1.5v-2.5h2v2.5h1.7v1.5h-1.7v4.4c0,0.2,0,0.4,0,0.5s0,0.2,0.1,0.4c0.1,0.1,0.1,0.1,0.2,0.2
				c0.1,0,0.2,0.1,0.5,0.1c0.1,0,0.2,0,0.4,0c0.1,0,0.2,0,0.4,0V35c-0.2,0-0.4,0-0.6,0.1c-0.2,0-0.4,0-0.6,0c-0.5,0-0.9,0-1.2-0.1
				c-0.4-0.1-0.5-0.2-0.7-0.4c-0.1-0.2-0.2-0.4-0.4-0.7c0-0.2-0.1-0.6-0.1-0.9v-5.1h-1.5L145.7,26.4L145.7,26.4z"/>
		</g>
	</g>
</g>
</svg>
