<svg xmlns="http://www.w3.org/2000/svg" width="47" height="47" viewBox="0 0 47 47">
  <g id="Group_51" data-name="Group 51" transform="translate(-1197 -351)">
    <g id="Group_47" data-name="Group 47" transform="translate(93 7)">
      <rect id="Rectangle_39" data-name="Rectangle 39" width="47" height="47" rx="6" transform="translate(1104 344)" fill="#463a6f"/>
    </g>
    <g id="Group_50" data-name="Group 50" transform="translate(500.247 74.247)">
      <path id="Path_57" data-name="Path 57" d="M733.664,289.089a17.377,17.377,0,1,0,5.089,12.287,17.263,17.263,0,0,0-5.089-12.287Zm3.019,11.269h-8.938a6.45,6.45,0,0,0-2.3-3.984l4.473-7.748a15.516,15.516,0,0,1,2.31,1.9,15.226,15.226,0,0,1,4.459,9.829Zm-15.306,5.43a4.412,4.412,0,1,1,4.412-4.412,4.417,4.417,0,0,1-4.412,4.412Zm6.775-18.183-4.473,7.748a6.445,6.445,0,0,0-4.6,0l-4.473-7.748a15.408,15.408,0,0,1,13.55,0Zm-17.622,2.924a15.5,15.5,0,0,1,2.31-1.9l4.473,7.748a6.45,6.45,0,0,0-2.3,3.984h-8.938a15.223,15.223,0,0,1,4.459-9.829Zm-4.459,11.865h8.938a6.45,6.45,0,0,0,2.3,3.984l-4.473,7.748a15.515,15.515,0,0,1-2.31-1.9,15.225,15.225,0,0,1-4.459-9.829Zm8.531,12.753,4.473-7.747a6.445,6.445,0,0,0,4.6,0l4.473,7.747a15.408,15.408,0,0,1-13.55,0Zm17.622-2.924a15.5,15.5,0,0,1-2.31,1.9l-4.473-7.748a6.45,6.45,0,0,0,2.3-3.984h8.938a15.224,15.224,0,0,1-4.459,9.829Zm0,0" transform="translate(-1 -1.247)" fill="#fff"/>
    </g>
  </g>
</svg>
